<svg xmlns="http://www.w3.org/2000/svg" xmlns:xlink="http://www.w3.org/1999/xlink" width="50" zoomAndPan="magnify" viewBox="0 0 37.5 37.499999" height="50" preserveAspectRatio="xMidYMid meet" version="1.0"><defs><clipPath id="6ed1c0a140"><path d="M 1.851562 1.871094 L 35.15625 1.871094 L 35.15625 35.175781 L 1.851562 35.175781 Z M 1.851562 1.871094 " clip-rule="nonzero"/></clipPath></defs><g clip-path="url(#6ed1c0a140)"><path fill="#ffffff" d="M 18.28125 6.46875 C 15.855469 6.46875 13.488281 7.1875 11.476562 8.53125 C 9.460938 9.878906 7.890625 11.789062 6.964844 14.027344 C 6.039062 16.265625 5.796875 18.726562 6.269531 21.105469 C 6.742188 23.480469 7.90625 25.660156 9.621094 27.375 C 11.332031 29.085938 13.515625 30.253906 15.890625 30.726562 C 18.265625 31.199219 20.726562 30.957031 22.964844 30.027344 C 25.203125 29.101562 27.117188 27.53125 28.460938 25.519531 C 29.808594 23.503906 30.527344 21.136719 30.527344 18.714844 C 30.523438 15.46875 29.230469 12.355469 26.933594 10.058594 C 24.640625 7.761719 21.527344 6.472656 18.28125 6.46875 Z M 7.136719 18.714844 C 7.140625 17.882812 7.234375 17.054688 7.421875 16.246094 L 7.835938 18.058594 C 7.839844 18.074219 7.847656 18.085938 7.855469 18.09375 L 8.363281 18.605469 L 8.824219 20.191406 C 8.960938 20.410156 9.148438 20.589844 9.371094 20.722656 L 10 21.089844 L 10.804688 22.097656 L 10.84375 22.636719 L 10.304688 24.121094 C 10.300781 24.132812 10.300781 24.148438 10.304688 24.164062 L 10.570312 25.175781 L 10.363281 25.671875 C 10.355469 25.6875 10.355469 25.703125 10.359375 25.71875 C 10.363281 25.730469 10.371094 25.746094 10.382812 25.753906 L 11.527344 26.632812 L 11.617188 27.625 C 10.226562 26.589844 9.101562 25.246094 8.320312 23.699219 C 7.542969 22.152344 7.140625 20.445312 7.136719 18.714844 Z M 28.808594 20.25 C 28.8125 20.253906 28.816406 20.257812 28.820312 20.257812 L 29.265625 20.492188 C 29.207031 20.863281 29.128906 21.230469 29.03125 21.589844 L 28.945312 21.53125 L 28.648438 20.230469 L 28.574219 20.039062 Z M 27.9375 17.917969 L 27.554688 18.617188 L 26.382812 17.863281 C 26.371094 17.851562 26.355469 17.847656 26.339844 17.851562 L 25.488281 17.921875 L 24.417969 17.351562 C 24.40625 17.347656 24.394531 17.34375 24.382812 17.34375 L 23.363281 17.34375 C 23.351562 17.34375 23.339844 17.347656 23.328125 17.355469 C 23.320312 17.359375 23.3125 17.371094 23.304688 17.378906 L 22.585938 18.675781 L 22 19.53125 C 21.992188 19.542969 21.988281 19.554688 21.988281 19.570312 L 21.988281 21.261719 C 21.988281 21.277344 21.996094 21.292969 22.003906 21.304688 L 23.1875 22.78125 C 23.195312 22.789062 23.203125 22.792969 23.210938 22.800781 C 23.21875 22.804688 23.230469 22.804688 23.238281 22.804688 L 24.164062 22.855469 C 24.171875 22.855469 24.183594 22.851562 24.191406 22.851562 L 25.011719 22.542969 L 25.542969 23.273438 L 25.40625 24.082031 C 25.402344 24.09375 25.40625 24.105469 25.410156 24.117188 L 25.769531 25.0625 C 25.773438 25.070312 25.78125 25.078125 25.785156 25.085938 L 26.335938 25.648438 L 26.367188 26.355469 C 25.027344 27.789062 23.332031 28.84375 21.449219 29.402344 C 19.566406 29.960938 17.570312 30.007812 15.664062 29.535156 L 15.757812 29.117188 C 15.757812 29.101562 15.757812 29.085938 15.753906 29.074219 L 15.449219 28.382812 L 15.480469 27.765625 L 16.207031 27.386719 C 16.21875 27.378906 16.230469 27.371094 16.238281 27.359375 L 16.746094 26.46875 C 16.753906 26.460938 16.753906 26.449219 16.753906 26.4375 L 16.753906 25.578125 C 16.753906 25.453125 16.707031 25.335938 16.617188 25.25 C 16.53125 25.160156 16.414062 25.113281 16.289062 25.113281 L 15.875 25.113281 C 15.8125 25.113281 15.75 25.09375 15.695312 25.058594 L 15.375 24.851562 C 15.332031 24.824219 15.292969 24.785156 15.265625 24.734375 C 15.238281 24.6875 15.222656 24.636719 15.21875 24.582031 L 15.175781 23.769531 C 15.171875 23.753906 15.167969 23.742188 15.160156 23.730469 C 15.148438 23.71875 15.136719 23.710938 15.125 23.707031 L 13.960938 23.398438 L 13.589844 22.617188 C 13.585938 22.609375 13.582031 22.601562 13.574219 22.59375 C 13.566406 22.589844 13.558594 22.582031 13.550781 22.582031 L 12.386719 22.1875 L 12.179688 21.335938 C 12.175781 21.324219 12.171875 21.3125 12.160156 21.304688 L 11.429688 20.554688 L 11.191406 19.8125 C 11.164062 19.722656 11.105469 19.644531 11.027344 19.585938 C 10.953125 19.53125 10.859375 19.5 10.765625 19.5 L 10.257812 19.5 L 9.871094 18.167969 L 10.503906 17.625 L 11.226562 17.625 L 12.03125 17.949219 C 12.042969 17.953125 12.058594 17.953125 12.070312 17.949219 C 12.085938 17.949219 12.097656 17.941406 12.105469 17.929688 L 12.597656 17.386719 C 12.609375 17.375 12.613281 17.363281 12.617188 17.351562 C 12.617188 17.335938 12.617188 17.324219 12.609375 17.3125 L 12.082031 16.148438 L 12.597656 15.375 L 13.621094 14.617188 C 13.628906 14.609375 13.636719 14.601562 13.640625 14.589844 C 13.648438 14.582031 13.648438 14.570312 13.648438 14.558594 L 13.648438 13.648438 L 14.546875 14.230469 L 14.546875 14.882812 C 14.546875 14.890625 14.550781 14.902344 14.554688 14.910156 C 14.558594 14.917969 14.5625 14.925781 14.570312 14.929688 C 14.574219 14.9375 14.582031 14.941406 14.589844 14.945312 C 14.597656 14.949219 14.609375 14.953125 14.617188 14.953125 L 15.816406 14.953125 C 15.832031 14.953125 15.847656 14.945312 15.859375 14.933594 C 15.871094 14.925781 15.878906 14.910156 15.882812 14.894531 L 16.101562 13.535156 C 16.105469 13.515625 16.101562 13.5 16.089844 13.484375 L 15.328125 12.34375 C 15.320312 12.332031 15.308594 12.324219 15.296875 12.316406 L 14.410156 11.976562 L 14.25 11.0625 C 14.246094 11.046875 14.238281 11.03125 14.226562 11.023438 C 14.214844 11.011719 14.199219 11.007812 14.183594 11.007812 L 13.636719 11.007812 C 13.625 11.007812 13.613281 11.007812 13.601562 11.015625 L 12.875 11.433594 L 12.136719 11.039062 L 12.335938 10.191406 L 12.917969 9.71875 C 12.925781 9.710938 12.933594 9.703125 12.9375 9.691406 C 12.941406 9.683594 12.945312 9.675781 12.945312 9.664062 L 12.945312 8.9375 C 13.304688 8.742188 13.675781 8.566406 14.054688 8.410156 L 14.175781 8.605469 C 14.179688 8.613281 14.183594 8.617188 14.1875 8.621094 L 14.625 9.003906 C 14.632812 9.011719 14.640625 9.019531 14.652344 9.019531 C 14.664062 9.023438 14.671875 9.023438 14.683594 9.019531 L 15.09375 8.929688 L 15.09375 9.550781 C 15.09375 9.558594 15.09375 9.570312 15.097656 9.578125 L 15.527344 10.539062 L 15.527344 11.242188 C 15.527344 11.253906 15.53125 11.265625 15.539062 11.277344 C 15.546875 11.289062 15.558594 11.296875 15.570312 11.304688 L 16.660156 11.792969 C 16.667969 11.796875 16.675781 11.796875 16.6875 11.796875 C 16.695312 11.796875 16.703125 11.796875 16.710938 11.792969 C 16.722656 11.789062 16.730469 11.785156 16.734375 11.777344 C 16.742188 11.769531 16.746094 11.761719 16.75 11.753906 L 17.1875 10.664062 C 17.191406 10.65625 17.191406 10.648438 17.191406 10.640625 L 17.191406 9.578125 L 17.605469 9.164062 C 17.617188 9.15625 17.621094 9.144531 17.625 9.132812 C 17.628906 9.121094 17.628906 9.109375 17.625 9.097656 L 17.40625 8.320312 C 17.402344 8.308594 17.398438 8.300781 17.390625 8.292969 C 17.382812 8.28125 17.371094 8.277344 17.359375 8.273438 L 16.726562 8.078125 L 16.464844 7.734375 C 18.308594 7.414062 20.203125 7.570312 21.96875 8.191406 C 23.738281 8.8125 25.3125 9.875 26.550781 11.277344 L 26.546875 12 C 26.546875 12.011719 26.550781 12.023438 26.554688 12.035156 L 26.296875 12.800781 L 25.722656 13.074219 L 24.699219 12.652344 C 24.683594 12.648438 24.671875 12.648438 24.65625 12.648438 C 24.640625 12.652344 24.628906 12.660156 24.621094 12.671875 L 23.917969 13.453125 L 22.929688 13.453125 C 22.910156 13.453125 22.894531 13.460938 22.882812 13.472656 L 22.011719 14.285156 C 22.003906 14.289062 22 14.296875 21.996094 14.304688 C 21.992188 14.316406 21.988281 14.324219 21.988281 14.335938 L 21.988281 15.742188 C 21.988281 15.757812 21.996094 15.773438 22.003906 15.785156 C 22.015625 15.796875 22.03125 15.804688 22.046875 15.808594 L 23.789062 16.101562 C 23.800781 16.101562 23.808594 16.101562 23.820312 16.097656 C 23.828125 16.097656 23.839844 16.089844 23.847656 16.085938 L 24.480469 15.523438 L 25.007812 15.523438 L 25.710938 16.226562 C 25.71875 16.234375 25.730469 16.238281 25.742188 16.242188 C 25.753906 16.246094 25.761719 16.246094 25.773438 16.242188 C 25.785156 16.242188 25.796875 16.238281 25.804688 16.230469 C 25.8125 16.222656 25.820312 16.210938 25.824219 16.203125 L 26.09375 15.539062 L 27.917969 16.148438 L 27.515625 16.96875 C 27.511719 16.980469 27.507812 16.988281 27.507812 17 C 27.507812 17.011719 27.511719 17.019531 27.515625 17.03125 Z M 15.550781 18.699219 C 15.550781 18.738281 15.539062 18.773438 15.511719 18.796875 C 15.484375 18.824219 15.449219 18.839844 15.414062 18.839844 L 14.308594 18.839844 C 14.273438 18.839844 14.238281 18.824219 14.210938 18.796875 C 14.1875 18.773438 14.171875 18.738281 14.171875 18.699219 C 14.171875 18.664062 14.1875 18.628906 14.210938 18.601562 C 14.238281 18.578125 14.273438 18.5625 14.308594 18.5625 L 15.414062 18.5625 C 15.449219 18.5625 15.484375 18.578125 15.511719 18.601562 C 15.539062 18.628906 15.550781 18.664062 15.550781 18.699219 Z M 18.3125 18.699219 C 18.3125 18.738281 18.296875 18.773438 18.273438 18.796875 C 18.246094 18.824219 18.210938 18.839844 18.175781 18.839844 L 17.070312 18.839844 C 17.035156 18.839844 17 18.824219 16.972656 18.796875 C 16.945312 18.773438 16.933594 18.738281 16.933594 18.699219 C 16.933594 18.664062 16.945312 18.628906 16.972656 18.601562 C 17 18.578125 17.035156 18.5625 17.070312 18.5625 L 18.175781 18.5625 C 18.210938 18.5625 18.246094 18.578125 18.273438 18.601562 C 18.296875 18.628906 18.3125 18.664062 18.3125 18.699219 Z M 19.765625 20.441406 C 19.765625 20.480469 19.75 20.515625 19.726562 20.539062 C 19.699219 20.566406 19.664062 20.582031 19.628906 20.582031 L 18.523438 20.582031 C 18.488281 20.582031 18.453125 20.566406 18.425781 20.539062 C 18.398438 20.515625 18.386719 20.480469 18.386719 20.441406 C 18.386719 20.40625 18.398438 20.371094 18.425781 20.34375 C 18.453125 20.320312 18.488281 20.304688 18.523438 20.304688 L 19.628906 20.304688 C 19.664062 20.304688 19.699219 20.320312 19.726562 20.34375 C 19.75 20.371094 19.765625 20.40625 19.765625 20.441406 Z M 17.003906 20.441406 C 17.003906 20.480469 16.992188 20.515625 16.964844 20.539062 C 16.9375 20.566406 16.902344 20.582031 16.867188 20.582031 L 15.761719 20.582031 C 15.726562 20.582031 15.691406 20.566406 15.664062 20.539062 C 15.640625 20.515625 15.625 20.480469 15.625 20.441406 C 15.625 20.40625 15.640625 20.371094 15.664062 20.34375 C 15.691406 20.320312 15.726562 20.304688 15.761719 20.304688 L 16.867188 20.304688 C 16.902344 20.304688 16.9375 20.320312 16.964844 20.34375 C 16.992188 20.371094 17.003906 20.40625 17.003906 20.441406 Z M 2.476562 15.386719 C 2.402344 15.738281 2.339844 16.101562 2.289062 16.457031 C 2.285156 16.488281 2.269531 16.519531 2.246094 16.542969 C 2.21875 16.5625 2.1875 16.578125 2.15625 16.578125 C 2.148438 16.578125 2.140625 16.574219 2.136719 16.574219 C 2.097656 16.570312 2.066406 16.550781 2.042969 16.523438 C 2.023438 16.492188 2.011719 16.457031 2.015625 16.417969 C 2.070312 16.054688 2.132812 15.6875 2.207031 15.328125 C 2.214844 15.292969 2.238281 15.261719 2.269531 15.242188 C 2.296875 15.222656 2.335938 15.214844 2.371094 15.222656 C 2.40625 15.230469 2.4375 15.25 2.457031 15.28125 C 2.476562 15.3125 2.484375 15.347656 2.476562 15.386719 Z M 2.269531 20.800781 C 2.3125 21.15625 2.371094 21.519531 2.445312 21.875 C 2.445312 21.894531 2.445312 21.910156 2.445312 21.929688 C 2.441406 21.945312 2.433594 21.964844 2.421875 21.980469 C 2.414062 21.992188 2.398438 22.007812 2.386719 22.015625 C 2.371094 22.027344 2.351562 22.035156 2.335938 22.039062 C 2.324219 22.039062 2.316406 22.039062 2.308594 22.039062 C 2.277344 22.039062 2.246094 22.027344 2.21875 22.007812 C 2.195312 21.988281 2.179688 21.960938 2.171875 21.929688 C 2.101562 21.566406 2.039062 21.199219 1.992188 20.835938 C 1.992188 20.820312 1.992188 20.800781 1.996094 20.78125 C 2.003906 20.765625 2.011719 20.75 2.023438 20.734375 C 2.03125 20.71875 2.046875 20.707031 2.0625 20.699219 C 2.078125 20.691406 2.09375 20.683594 2.113281 20.683594 C 2.148438 20.679688 2.1875 20.6875 2.214844 20.710938 C 2.242188 20.734375 2.261719 20.765625 2.269531 20.800781 Z M 2.003906 19.316406 C 1.964844 19.316406 1.933594 19.300781 1.90625 19.277344 C 1.878906 19.25 1.867188 19.21875 1.863281 19.179688 C 1.859375 19.027344 1.859375 18.871094 1.859375 18.714844 C 1.859375 18.5 1.863281 18.285156 1.871094 18.074219 C 1.871094 18.054688 1.875 18.035156 1.882812 18.019531 C 1.890625 18.003906 1.898438 17.988281 1.914062 17.976562 C 1.925781 17.964844 1.941406 17.953125 1.960938 17.949219 C 1.976562 17.941406 1.996094 17.9375 2.015625 17.941406 C 2.050781 17.941406 2.085938 17.957031 2.109375 17.984375 C 2.136719 18.011719 2.148438 18.046875 2.148438 18.082031 C 2.136719 18.292969 2.132812 18.503906 2.132812 18.714844 C 2.132812 18.867188 2.136719 19.019531 2.140625 19.171875 C 2.140625 19.210938 2.128906 19.246094 2.101562 19.273438 C 2.078125 19.296875 2.042969 19.3125 2.007812 19.316406 Z M 4.425781 10.152344 C 4.441406 10.160156 4.453125 10.175781 4.464844 10.1875 C 4.476562 10.203125 4.484375 10.21875 4.488281 10.238281 C 4.492188 10.253906 4.492188 10.273438 4.488281 10.292969 C 4.488281 10.308594 4.480469 10.328125 4.472656 10.34375 C 4.285156 10.652344 4.105469 10.972656 3.9375 11.292969 C 3.925781 11.316406 3.910156 11.332031 3.886719 11.347656 C 3.867188 11.359375 3.839844 11.367188 3.816406 11.367188 C 3.792969 11.367188 3.769531 11.359375 3.75 11.351562 C 3.734375 11.34375 3.722656 11.332031 3.710938 11.316406 C 3.699219 11.304688 3.6875 11.289062 3.683594 11.269531 C 3.679688 11.253906 3.675781 11.234375 3.675781 11.214844 C 3.679688 11.199219 3.683594 11.179688 3.691406 11.164062 C 3.863281 10.839844 4.042969 10.511719 4.234375 10.199219 C 4.253906 10.167969 4.285156 10.144531 4.320312 10.136719 C 4.355469 10.128906 4.394531 10.132812 4.425781 10.152344 Z M 4.378906 26.9375 C 4.398438 26.96875 4.40625 27.003906 4.394531 27.039062 C 4.386719 27.074219 4.363281 27.105469 4.332031 27.125 C 4.300781 27.144531 4.261719 27.148438 4.226562 27.140625 C 4.191406 27.132812 4.164062 27.109375 4.144531 27.078125 C 3.953125 26.757812 3.777344 26.429688 3.613281 26.105469 C 3.605469 26.089844 3.597656 26.070312 3.597656 26.054688 C 3.597656 26.035156 3.597656 26.019531 3.605469 26 C 3.609375 25.984375 3.617188 25.96875 3.628906 25.953125 C 3.640625 25.941406 3.65625 25.929688 3.671875 25.921875 C 3.6875 25.914062 3.707031 25.90625 3.726562 25.90625 C 3.742188 25.90625 3.761719 25.90625 3.777344 25.914062 C 3.796875 25.917969 3.8125 25.925781 3.824219 25.941406 C 3.839844 25.953125 3.851562 25.964844 3.859375 25.980469 C 4.019531 26.300781 4.195312 26.621094 4.378906 26.9375 Z M 3.261719 12.777344 C 3.128906 13.117188 3.003906 13.460938 2.894531 13.804688 C 2.886719 13.832031 2.867188 13.859375 2.84375 13.875 C 2.820312 13.890625 2.792969 13.902344 2.761719 13.902344 C 2.75 13.902344 2.734375 13.898438 2.71875 13.894531 C 2.6875 13.882812 2.65625 13.859375 2.640625 13.828125 C 2.621094 13.792969 2.621094 13.757812 2.632812 13.722656 C 2.742188 13.371094 2.867188 13.019531 3.003906 12.675781 C 3.015625 12.644531 3.042969 12.617188 3.078125 12.601562 C 3.109375 12.585938 3.148438 12.585938 3.183594 12.601562 C 3.214844 12.613281 3.242188 12.640625 3.257812 12.671875 C 3.273438 12.707031 3.273438 12.746094 3.261719 12.777344 Z M 2.84375 23.457031 C 2.949219 23.804688 3.066406 24.148438 3.195312 24.488281 C 3.210938 24.523438 3.210938 24.558594 3.195312 24.59375 C 3.179688 24.625 3.152344 24.652344 3.117188 24.667969 C 3.101562 24.671875 3.085938 24.675781 3.066406 24.675781 C 3.039062 24.675781 3.011719 24.667969 2.988281 24.652344 C 2.96875 24.636719 2.949219 24.613281 2.9375 24.585938 C 2.808594 24.242188 2.6875 23.890625 2.578125 23.539062 C 2.574219 23.523438 2.570312 23.503906 2.574219 23.484375 C 2.574219 23.46875 2.582031 23.449219 2.589844 23.433594 C 2.597656 23.417969 2.609375 23.40625 2.621094 23.394531 C 2.636719 23.382812 2.652344 23.371094 2.671875 23.367188 C 2.6875 23.363281 2.707031 23.359375 2.722656 23.363281 C 2.742188 23.363281 2.757812 23.367188 2.773438 23.378906 C 2.792969 23.386719 2.804688 23.398438 2.816406 23.410156 C 2.828125 23.425781 2.835938 23.441406 2.84375 23.457031 Z M 5.960938 29.148438 C 5.984375 29.175781 5.996094 29.214844 5.992188 29.25 C 5.988281 29.285156 5.972656 29.320312 5.941406 29.34375 C 5.914062 29.367188 5.878906 29.378906 5.84375 29.375 C 5.804688 29.375 5.773438 29.355469 5.75 29.328125 C 5.511719 29.050781 5.28125 28.757812 5.0625 28.460938 C 5.050781 28.445312 5.042969 28.429688 5.039062 28.410156 C 5.035156 28.394531 5.035156 28.375 5.035156 28.359375 C 5.042969 28.320312 5.0625 28.289062 5.089844 28.265625 C 5.121094 28.246094 5.15625 28.234375 5.191406 28.242188 C 5.210938 28.246094 5.226562 28.25 5.242188 28.261719 C 5.257812 28.269531 5.273438 28.28125 5.285156 28.296875 C 5.5 28.589844 5.726562 28.875 5.960938 29.148438 Z M 11.53125 3.890625 C 11.515625 3.855469 11.515625 3.820312 11.527344 3.785156 C 11.542969 3.75 11.570312 3.722656 11.601562 3.707031 C 11.9375 3.558594 12.28125 3.417969 12.625 3.292969 C 12.644531 3.285156 12.660156 3.285156 12.679688 3.285156 C 12.699219 3.285156 12.714844 3.289062 12.730469 3.296875 C 12.75 3.304688 12.761719 3.316406 12.777344 3.328125 C 12.789062 3.339844 12.796875 3.355469 12.804688 3.375 C 12.808594 3.390625 12.8125 3.410156 12.8125 3.425781 C 12.8125 3.445312 12.808594 3.464844 12.800781 3.480469 C 12.792969 3.496094 12.78125 3.511719 12.769531 3.523438 C 12.753906 3.535156 12.738281 3.542969 12.722656 3.550781 C 12.382812 3.675781 12.042969 3.8125 11.714844 3.960938 C 11.695312 3.96875 11.675781 3.972656 11.65625 3.972656 C 11.632812 3.972656 11.605469 3.964844 11.582031 3.949219 C 11.558594 3.933594 11.542969 3.914062 11.53125 3.890625 Z M 16.816406 2.496094 C 16.8125 2.476562 16.816406 2.460938 16.820312 2.441406 C 16.828125 2.425781 16.835938 2.410156 16.847656 2.394531 C 16.859375 2.382812 16.875 2.371094 16.890625 2.363281 C 16.90625 2.355469 16.921875 2.347656 16.941406 2.347656 C 17.304688 2.316406 17.675781 2.300781 18.046875 2.296875 L 18.050781 2.296875 C 18.085938 2.292969 18.121094 2.308594 18.148438 2.335938 C 18.171875 2.359375 18.1875 2.394531 18.1875 2.433594 C 18.1875 2.46875 18.175781 2.503906 18.148438 2.53125 C 18.125 2.554688 18.089844 2.570312 18.050781 2.570312 C 17.6875 2.578125 17.320312 2.59375 16.964844 2.621094 L 16.953125 2.621094 C 16.917969 2.621094 16.882812 2.609375 16.859375 2.585938 C 16.832031 2.5625 16.816406 2.53125 16.816406 2.496094 Z M 14.113281 2.96875 C 14.109375 2.949219 14.109375 2.933594 14.109375 2.914062 C 14.113281 2.898438 14.121094 2.878906 14.128906 2.863281 C 14.136719 2.847656 14.148438 2.835938 14.164062 2.824219 C 14.179688 2.8125 14.195312 2.804688 14.214844 2.800781 C 14.5625 2.710938 14.929688 2.632812 15.292969 2.5625 C 15.332031 2.558594 15.367188 2.566406 15.398438 2.585938 C 15.429688 2.605469 15.449219 2.636719 15.457031 2.675781 C 15.460938 2.710938 15.453125 2.746094 15.433594 2.777344 C 15.414062 2.808594 15.378906 2.828125 15.34375 2.835938 C 14.984375 2.902344 14.625 2.980469 14.28125 3.066406 C 14.269531 3.070312 14.257812 3.074219 14.246094 3.074219 C 14.214844 3.074219 14.1875 3.0625 14.164062 3.042969 C 14.136719 3.023438 14.121094 3 14.113281 2.96875 Z M 19.558594 2.480469 C 19.5625 2.445312 19.582031 2.410156 19.609375 2.386719 C 19.636719 2.363281 19.671875 2.351562 19.707031 2.355469 C 20.078125 2.386719 20.449219 2.429688 20.808594 2.488281 C 20.84375 2.492188 20.875 2.511719 20.894531 2.535156 C 20.917969 2.5625 20.925781 2.597656 20.925781 2.632812 C 20.921875 2.667969 20.90625 2.699219 20.878906 2.722656 C 20.855469 2.746094 20.820312 2.761719 20.785156 2.761719 C 20.78125 2.761719 20.773438 2.761719 20.765625 2.757812 C 20.410156 2.703125 20.046875 2.660156 19.683594 2.628906 C 19.667969 2.628906 19.648438 2.621094 19.632812 2.613281 C 19.617188 2.605469 19.601562 2.59375 19.589844 2.582031 C 19.578125 2.566406 19.570312 2.550781 19.566406 2.535156 C 19.558594 2.515625 19.558594 2.5 19.558594 2.480469 Z M 5.195312 9.019531 C 5.167969 8.996094 5.148438 8.964844 5.140625 8.925781 C 5.136719 8.890625 5.148438 8.855469 5.167969 8.824219 C 5.386719 8.535156 5.621094 8.246094 5.867188 7.964844 C 5.878906 7.949219 5.890625 7.9375 5.910156 7.929688 C 5.925781 7.921875 5.941406 7.917969 5.960938 7.917969 C 5.980469 7.914062 5.996094 7.917969 6.015625 7.921875 C 6.03125 7.929688 6.046875 7.9375 6.0625 7.949219 C 6.074219 7.960938 6.085938 7.976562 6.09375 7.992188 C 6.101562 8.007812 6.105469 8.027344 6.109375 8.042969 C 6.109375 8.0625 6.109375 8.082031 6.101562 8.097656 C 6.097656 8.117188 6.085938 8.132812 6.074219 8.144531 C 5.835938 8.421875 5.605469 8.707031 5.390625 8.992188 C 5.378906 9.007812 5.363281 9.019531 5.347656 9.027344 C 5.332031 9.035156 5.316406 9.042969 5.296875 9.046875 C 5.28125 9.046875 5.261719 9.046875 5.246094 9.042969 C 5.226562 9.039062 5.210938 9.03125 5.195312 9.019531 Z M 9.140625 5.234375 C 9.132812 5.21875 9.125 5.203125 9.121094 5.183594 C 9.117188 5.167969 9.117188 5.148438 9.121094 5.132812 C 9.125 5.113281 9.132812 5.097656 9.140625 5.082031 C 9.152344 5.066406 9.164062 5.054688 9.179688 5.042969 C 9.488281 4.839844 9.804688 4.640625 10.121094 4.460938 C 10.152344 4.441406 10.191406 4.4375 10.226562 4.445312 C 10.261719 4.457031 10.292969 4.480469 10.308594 4.511719 C 10.328125 4.542969 10.332031 4.582031 10.324219 4.617188 C 10.3125 4.652344 10.289062 4.679688 10.257812 4.699219 C 9.945312 4.878906 9.636719 5.070312 9.332031 5.273438 C 9.300781 5.292969 9.265625 5.300781 9.230469 5.292969 C 9.195312 5.285156 9.160156 5.265625 9.140625 5.234375 Z M 7.011719 6.960938 C 6.996094 6.949219 6.988281 6.933594 6.980469 6.914062 C 6.976562 6.898438 6.972656 6.878906 6.972656 6.863281 C 6.972656 6.84375 6.976562 6.824219 6.984375 6.808594 C 6.992188 6.792969 7.003906 6.777344 7.015625 6.765625 C 7.28125 6.515625 7.5625 6.265625 7.847656 6.03125 C 7.875 6.007812 7.910156 6 7.949219 6.003906 C 7.984375 6.007812 8.015625 6.023438 8.039062 6.050781 C 8.0625 6.082031 8.074219 6.117188 8.070312 6.152344 C 8.066406 6.1875 8.050781 6.222656 8.023438 6.246094 C 7.742188 6.476562 7.46875 6.71875 7.207031 6.964844 C 7.191406 6.976562 7.175781 6.988281 7.160156 6.996094 C 7.144531 7 7.125 7.003906 7.105469 7.003906 C 7.089844 7.003906 7.070312 7 7.054688 6.992188 C 7.039062 6.984375 7.023438 6.972656 7.011719 6.960938 Z M 22.265625 2.921875 C 22.277344 2.886719 22.300781 2.855469 22.332031 2.839844 C 22.363281 2.820312 22.398438 2.8125 22.433594 2.824219 C 22.789062 2.914062 23.144531 3.023438 23.496094 3.140625 C 23.527344 3.148438 23.554688 3.171875 23.570312 3.199219 C 23.589844 3.226562 23.59375 3.257812 23.589844 3.292969 C 23.582031 3.324219 23.566406 3.355469 23.542969 3.375 C 23.515625 3.394531 23.484375 3.40625 23.453125 3.40625 C 23.4375 3.40625 23.421875 3.40625 23.410156 3.402344 C 23.0625 3.285156 22.710938 3.179688 22.367188 3.089844 C 22.347656 3.085938 22.332031 3.078125 22.316406 3.066406 C 22.300781 3.054688 22.289062 3.042969 22.28125 3.027344 C 22.273438 3.011719 22.265625 2.992188 22.261719 2.976562 C 22.261719 2.957031 22.261719 2.941406 22.265625 2.921875 Z M 15.285156 34.722656 C 15.277344 34.753906 15.261719 34.78125 15.238281 34.804688 C 15.210938 34.824219 15.183594 34.835938 15.148438 34.835938 C 15.140625 34.835938 15.132812 34.835938 15.125 34.832031 C 14.769531 34.761719 14.40625 34.679688 14.042969 34.585938 C 14.027344 34.578125 14.011719 34.570312 13.996094 34.5625 C 13.980469 34.550781 13.96875 34.535156 13.960938 34.519531 C 13.949219 34.503906 13.945312 34.488281 13.941406 34.46875 C 13.941406 34.453125 13.941406 34.433594 13.945312 34.414062 C 13.949219 34.398438 13.957031 34.382812 13.96875 34.367188 C 13.980469 34.351562 13.992188 34.339844 14.011719 34.332031 C 14.027344 34.324219 14.042969 34.316406 14.0625 34.316406 C 14.078125 34.3125 14.097656 34.3125 14.113281 34.316406 C 14.46875 34.410156 14.828125 34.492188 15.175781 34.5625 C 15.210938 34.570312 15.242188 34.589844 15.265625 34.621094 C 15.285156 34.652344 15.292969 34.6875 15.285156 34.722656 Z M 31.941406 27.578125 C 31.957031 27.585938 31.96875 27.601562 31.980469 27.613281 C 31.992188 27.628906 31.996094 27.648438 32 27.664062 C 32.003906 27.683594 32.003906 27.699219 32 27.71875 C 32 27.734375 31.992188 27.753906 31.980469 27.769531 C 31.777344 28.074219 31.5625 28.378906 31.339844 28.671875 C 31.328125 28.683594 31.3125 28.699219 31.296875 28.707031 C 31.28125 28.714844 31.265625 28.722656 31.246094 28.722656 C 31.230469 28.726562 31.210938 28.726562 31.195312 28.71875 C 31.175781 28.714844 31.160156 28.707031 31.144531 28.695312 C 31.132812 28.6875 31.117188 28.671875 31.109375 28.65625 C 31.101562 28.640625 31.09375 28.625 31.09375 28.605469 C 31.089844 28.585938 31.089844 28.570312 31.09375 28.550781 C 31.101562 28.535156 31.109375 28.519531 31.121094 28.503906 C 31.339844 28.214844 31.550781 27.914062 31.75 27.617188 C 31.769531 27.585938 31.804688 27.5625 31.839844 27.558594 C 31.875 27.550781 31.910156 27.558594 31.941406 27.578125 Z M 28.238281 31.597656 C 28.25 31.613281 28.257812 31.628906 28.261719 31.648438 C 28.265625 31.664062 28.269531 31.683594 28.265625 31.703125 C 28.261719 31.71875 28.257812 31.738281 28.246094 31.753906 C 28.238281 31.769531 28.226562 31.78125 28.210938 31.792969 C 27.917969 32.015625 27.617188 32.230469 27.308594 32.433594 C 27.285156 32.449219 27.261719 32.457031 27.234375 32.457031 C 27.203125 32.457031 27.175781 32.445312 27.152344 32.429688 C 27.128906 32.410156 27.109375 32.386719 27.101562 32.355469 C 27.09375 32.328125 27.09375 32.296875 27.105469 32.269531 C 27.113281 32.242188 27.132812 32.21875 27.15625 32.203125 C 27.457031 32.003906 27.757812 31.792969 28.046875 31.574219 C 28.074219 31.550781 28.109375 31.542969 28.148438 31.546875 C 28.183594 31.550781 28.214844 31.570312 28.238281 31.597656 Z M 33.238281 25.160156 C 33.253906 25.167969 33.269531 25.175781 33.28125 25.191406 C 33.296875 25.203125 33.304688 25.21875 33.3125 25.234375 C 33.316406 25.25 33.320312 25.269531 33.320312 25.289062 C 33.320312 25.304688 33.316406 25.324219 33.308594 25.339844 C 33.160156 25.675781 33 26.011719 32.828125 26.339844 C 32.820312 26.355469 32.808594 26.371094 32.792969 26.382812 C 32.777344 26.394531 32.761719 26.402344 32.746094 26.40625 C 32.730469 26.414062 32.710938 26.414062 32.691406 26.414062 C 32.675781 26.410156 32.65625 26.40625 32.640625 26.398438 C 32.625 26.390625 32.609375 26.378906 32.597656 26.363281 C 32.585938 26.351562 32.578125 26.332031 32.574219 26.316406 C 32.566406 26.300781 32.566406 26.28125 32.566406 26.261719 C 32.570312 26.246094 32.574219 26.226562 32.582031 26.210938 C 32.75 25.890625 32.910156 25.558594 33.058594 25.230469 C 33.0625 25.210938 33.074219 25.199219 33.085938 25.183594 C 33.101562 25.171875 33.117188 25.164062 33.132812 25.15625 C 33.148438 25.148438 33.167969 25.148438 33.1875 25.148438 C 33.203125 25.148438 33.222656 25.152344 33.238281 25.160156 Z M 30.257812 29.742188 C 30.285156 29.769531 30.300781 29.804688 30.304688 29.839844 C 30.304688 29.875 30.289062 29.914062 30.265625 29.9375 C 30.015625 30.207031 29.75 30.46875 29.480469 30.722656 C 29.46875 30.734375 29.453125 30.742188 29.4375 30.75 C 29.417969 30.757812 29.402344 30.757812 29.382812 30.757812 C 29.363281 30.757812 29.347656 30.753906 29.332031 30.746094 C 29.3125 30.738281 29.300781 30.726562 29.285156 30.714844 C 29.273438 30.703125 29.265625 30.6875 29.257812 30.667969 C 29.25 30.652344 29.25 30.632812 29.25 30.617188 C 29.25 30.597656 29.253906 30.578125 29.261719 30.5625 C 29.269531 30.546875 29.28125 30.53125 29.292969 30.519531 C 29.558594 30.273438 29.816406 30.015625 30.0625 29.75 C 30.078125 29.738281 30.089844 29.726562 30.109375 29.71875 C 30.125 29.710938 30.140625 29.707031 30.160156 29.707031 C 30.179688 29.707031 30.195312 29.710938 30.214844 29.714844 C 30.230469 29.722656 30.246094 29.730469 30.257812 29.742188 Z M 34.632812 17.226562 C 34.667969 17.59375 34.6875 17.96875 34.695312 18.335938 C 34.695312 18.351562 34.695312 18.371094 34.6875 18.386719 C 34.679688 18.402344 34.671875 18.417969 34.660156 18.433594 C 34.644531 18.445312 34.628906 18.457031 34.613281 18.464844 C 34.597656 18.472656 34.578125 18.476562 34.5625 18.476562 L 34.558594 18.476562 C 34.523438 18.476562 34.488281 18.460938 34.460938 18.4375 C 34.4375 18.410156 34.421875 18.375 34.421875 18.339844 C 34.414062 17.980469 34.390625 17.613281 34.359375 17.253906 C 34.359375 17.234375 34.359375 17.214844 34.363281 17.199219 C 34.371094 17.183594 34.378906 17.164062 34.390625 17.152344 C 34.402344 17.136719 34.417969 17.125 34.433594 17.117188 C 34.449219 17.109375 34.464844 17.105469 34.484375 17.101562 C 34.503906 17.101562 34.519531 17.101562 34.539062 17.109375 C 34.554688 17.113281 34.570312 17.121094 34.585938 17.132812 C 34.597656 17.144531 34.609375 17.160156 34.617188 17.175781 C 34.628906 17.191406 34.632812 17.210938 34.632812 17.226562 Z M 34.207031 22.722656 C 34.117188 23.078125 34.015625 23.4375 33.902344 23.789062 C 33.894531 23.816406 33.875 23.839844 33.851562 23.859375 C 33.828125 23.875 33.800781 23.882812 33.769531 23.882812 C 33.757812 23.882812 33.742188 23.882812 33.726562 23.878906 C 33.691406 23.867188 33.664062 23.839844 33.648438 23.808594 C 33.632812 23.777344 33.628906 23.738281 33.640625 23.703125 C 33.75 23.359375 33.851562 23.007812 33.941406 22.65625 C 33.945312 22.640625 33.953125 22.621094 33.960938 22.609375 C 33.972656 22.59375 33.988281 22.582031 34.003906 22.570312 C 34.019531 22.5625 34.035156 22.554688 34.054688 22.554688 C 34.070312 22.550781 34.089844 22.550781 34.109375 22.558594 C 34.144531 22.566406 34.171875 22.589844 34.191406 22.621094 C 34.210938 22.652344 34.21875 22.6875 34.207031 22.722656 Z M 34.652344 19.996094 C 34.621094 20.363281 34.582031 20.734375 34.527344 21.09375 C 34.523438 21.128906 34.507812 21.15625 34.484375 21.179688 C 34.457031 21.199219 34.425781 21.210938 34.394531 21.210938 C 34.386719 21.210938 34.378906 21.210938 34.371094 21.210938 C 34.355469 21.207031 34.335938 21.203125 34.320312 21.191406 C 34.304688 21.183594 34.292969 21.171875 34.28125 21.15625 C 34.269531 21.140625 34.261719 21.125 34.257812 21.109375 C 34.253906 21.089844 34.253906 21.074219 34.257812 21.054688 C 34.308594 20.699219 34.347656 20.335938 34.375 19.972656 C 34.378906 19.9375 34.398438 19.902344 34.425781 19.878906 C 34.453125 19.855469 34.488281 19.84375 34.523438 19.847656 C 34.5625 19.851562 34.59375 19.867188 34.617188 19.894531 C 34.640625 19.921875 34.652344 19.957031 34.652344 19.996094 Z M 12.640625 33.996094 C 12.628906 34.019531 12.613281 34.042969 12.589844 34.058594 C 12.566406 34.074219 12.539062 34.085938 12.511719 34.085938 C 12.496094 34.085938 12.476562 34.082031 12.460938 34.074219 C 12.121094 33.945312 11.777344 33.800781 11.441406 33.648438 C 11.40625 33.632812 11.378906 33.605469 11.367188 33.570312 C 11.355469 33.535156 11.355469 33.496094 11.371094 33.464844 C 11.386719 33.429688 11.414062 33.40625 11.449219 33.394531 C 11.484375 33.378906 11.519531 33.382812 11.554688 33.394531 C 11.886719 33.546875 12.222656 33.691406 12.5625 33.816406 C 12.59375 33.832031 12.621094 33.855469 12.636719 33.890625 C 12.652344 33.921875 12.652344 33.960938 12.640625 33.996094 Z M 7.886719 31.070312 C 7.914062 31.09375 7.929688 31.125 7.933594 31.164062 C 7.9375 31.199219 7.925781 31.234375 7.902344 31.265625 C 7.878906 31.292969 7.84375 31.308594 7.808594 31.3125 C 7.773438 31.316406 7.734375 31.304688 7.707031 31.28125 C 7.425781 31.042969 7.148438 30.792969 6.886719 30.539062 C 6.871094 30.527344 6.863281 30.511719 6.855469 30.496094 C 6.847656 30.476562 6.84375 30.460938 6.84375 30.441406 C 6.84375 30.425781 6.847656 30.40625 6.851562 30.390625 C 6.859375 30.371094 6.871094 30.355469 6.882812 30.34375 C 6.894531 30.332031 6.910156 30.320312 6.925781 30.3125 C 6.941406 30.304688 6.960938 30.300781 6.980469 30.300781 C 6.996094 30.300781 7.015625 30.304688 7.03125 30.3125 C 7.046875 30.316406 7.0625 30.328125 7.078125 30.339844 C 7.335938 30.589844 7.609375 30.835938 7.886719 31.070312 Z M 18.015625 34.996094 C 18.011719 35.03125 18 35.066406 17.972656 35.09375 C 17.945312 35.117188 17.910156 35.132812 17.875 35.132812 L 17.871094 35.132812 C 17.503906 35.121094 17.128906 35.101562 16.765625 35.066406 C 16.730469 35.0625 16.699219 35.046875 16.675781 35.019531 C 16.652344 34.992188 16.640625 34.953125 16.640625 34.917969 C 16.648438 34.882812 16.664062 34.847656 16.691406 34.824219 C 16.71875 34.800781 16.757812 34.789062 16.792969 34.792969 C 17.148438 34.824219 17.515625 34.847656 17.878906 34.855469 C 17.917969 34.855469 17.949219 34.871094 17.976562 34.898438 C 18 34.925781 18.015625 34.960938 18.015625 34.996094 Z M 10.105469 32.640625 C 10.132812 32.65625 10.152344 32.679688 10.164062 32.707031 C 10.175781 32.734375 10.179688 32.765625 10.171875 32.796875 C 10.160156 32.824219 10.144531 32.851562 10.121094 32.871094 C 10.097656 32.886719 10.066406 32.898438 10.035156 32.898438 C 10.011719 32.898438 9.988281 32.890625 9.96875 32.878906 C 9.648438 32.691406 9.332031 32.492188 9.03125 32.285156 C 9.015625 32.273438 9.003906 32.261719 8.992188 32.246094 C 8.984375 32.230469 8.976562 32.214844 8.972656 32.195312 C 8.96875 32.179688 8.96875 32.160156 8.972656 32.144531 C 8.976562 32.125 8.984375 32.109375 8.996094 32.09375 C 9.003906 32.078125 9.019531 32.066406 9.035156 32.054688 C 9.046875 32.046875 9.066406 32.039062 9.082031 32.035156 C 9.101562 32.03125 9.121094 32.03125 9.136719 32.035156 C 9.15625 32.039062 9.171875 32.046875 9.1875 32.058594 C 9.484375 32.261719 9.792969 32.457031 10.105469 32.640625 Z M 20.75 34.8125 C 20.753906 34.832031 20.753906 34.847656 20.746094 34.867188 C 20.742188 34.882812 20.734375 34.898438 20.722656 34.914062 C 20.714844 34.929688 20.699219 34.941406 20.683594 34.949219 C 20.667969 34.960938 20.652344 34.964844 20.632812 34.96875 C 20.269531 35.019531 19.898438 35.0625 19.53125 35.089844 L 19.523438 35.089844 C 19.488281 35.089844 19.453125 35.074219 19.425781 35.050781 C 19.402344 35.027344 19.386719 34.992188 19.382812 34.957031 C 19.382812 34.921875 19.394531 34.886719 19.417969 34.859375 C 19.445312 34.832031 19.476562 34.816406 19.511719 34.8125 C 19.871094 34.785156 20.238281 34.746094 20.59375 34.695312 C 20.613281 34.691406 20.628906 34.695312 20.648438 34.699219 C 20.664062 34.703125 20.683594 34.710938 20.695312 34.722656 C 20.710938 34.734375 20.722656 34.746094 20.734375 34.761719 C 20.742188 34.777344 20.75 34.792969 20.75 34.8125 Z M 25.9375 33.089844 C 25.953125 33.121094 25.957031 33.160156 25.945312 33.195312 C 25.933594 33.230469 25.910156 33.257812 25.878906 33.277344 C 25.550781 33.445312 25.214844 33.609375 24.882812 33.753906 C 24.863281 33.761719 24.84375 33.765625 24.824219 33.765625 C 24.792969 33.765625 24.761719 33.753906 24.738281 33.734375 C 24.714844 33.714844 24.695312 33.6875 24.691406 33.65625 C 24.683594 33.625 24.6875 33.59375 24.703125 33.566406 C 24.71875 33.539062 24.742188 33.515625 24.769531 33.503906 C 25.101562 33.355469 25.429688 33.199219 25.75 33.03125 C 25.78125 33.015625 25.820312 33.011719 25.855469 33.023438 C 25.890625 33.03125 25.917969 33.058594 25.9375 33.089844 Z M 23.417969 34.171875 C 23.429688 34.207031 23.425781 34.242188 23.410156 34.277344 C 23.390625 34.308594 23.363281 34.332031 23.328125 34.34375 C 22.976562 34.457031 22.617188 34.5625 22.261719 34.648438 C 22.253906 34.652344 22.242188 34.652344 22.230469 34.652344 C 22.195312 34.652344 22.164062 34.640625 22.136719 34.617188 C 22.113281 34.597656 22.097656 34.566406 22.09375 34.53125 C 22.089844 34.5 22.097656 34.464844 22.117188 34.4375 C 22.136719 34.410156 22.164062 34.390625 22.195312 34.382812 C 22.542969 34.296875 22.894531 34.195312 23.242188 34.082031 C 23.277344 34.070312 23.316406 34.074219 23.347656 34.089844 C 23.378906 34.109375 23.40625 34.136719 23.417969 34.171875 Z M 34.957031 14.003906 L 33.585938 11.8125 C 33.515625 11.699219 33.421875 11.597656 33.3125 11.519531 C 33.203125 11.441406 33.078125 11.386719 32.949219 11.355469 C 32.816406 11.324219 32.679688 11.320312 32.546875 11.34375 C 32.414062 11.367188 32.289062 11.414062 32.171875 11.484375 L 32.105469 11.527344 L 31.652344 10.800781 L 32.566406 10.230469 C 32.710938 10.140625 32.839844 10.019531 32.941406 9.878906 C 33.042969 9.734375 33.113281 9.574219 33.152344 9.40625 C 33.191406 9.238281 33.199219 9.0625 33.167969 8.890625 C 33.140625 8.71875 33.078125 8.554688 32.984375 8.40625 L 31.851562 6.589844 C 31.664062 6.292969 31.367188 6.078125 31.027344 6 C 30.683594 5.921875 30.324219 5.984375 30.027344 6.167969 L 29.113281 6.738281 L 28.660156 6.011719 L 28.726562 5.96875 C 28.957031 5.824219 29.121094 5.59375 29.183594 5.332031 C 29.242188 5.066406 29.199219 4.785156 29.054688 4.554688 L 27.683594 2.363281 C 27.609375 2.246094 27.519531 2.148438 27.410156 2.070312 C 27.296875 1.992188 27.175781 1.9375 27.042969 1.90625 C 26.910156 1.875 26.777344 1.871094 26.644531 1.894531 C 26.511719 1.917969 26.382812 1.964844 26.269531 2.035156 L 25.199219 2.703125 C 25.085938 2.773438 24.988281 2.867188 24.910156 2.976562 C 24.832031 3.085938 24.773438 3.210938 24.746094 3.34375 C 24.714844 3.472656 24.710938 3.609375 24.730469 3.742188 C 24.753906 3.875 24.800781 4.003906 24.875 4.117188 L 26.246094 6.3125 C 26.390625 6.542969 26.621094 6.707031 26.882812 6.765625 C 27.148438 6.828125 27.429688 6.78125 27.660156 6.636719 L 27.722656 6.597656 L 28.175781 7.324219 L 27.882812 7.507812 C 27.585938 7.695312 27.375 7.992188 27.296875 8.332031 C 27.21875 8.675781 27.277344 9.035156 27.460938 9.332031 L 28.597656 11.148438 C 28.785156 11.445312 29.082031 11.65625 29.421875 11.738281 C 29.765625 11.816406 30.125 11.753906 30.421875 11.570312 L 30.714844 11.386719 L 31.171875 12.113281 L 31.105469 12.152344 C 30.992188 12.222656 30.890625 12.316406 30.8125 12.425781 C 30.734375 12.535156 30.679688 12.660156 30.648438 12.792969 C 30.617188 12.921875 30.613281 13.058594 30.636719 13.191406 C 30.660156 13.324219 30.707031 13.453125 30.777344 13.566406 L 32.148438 15.761719 C 32.292969 15.992188 32.523438 16.15625 32.789062 16.21875 C 33.054688 16.277344 33.332031 16.230469 33.5625 16.085938 L 34.632812 15.421875 C 34.863281 15.277344 35.027344 15.046875 35.085938 14.78125 C 35.148438 14.515625 35.101562 14.238281 34.957031 14.003906 Z M 27.140625 5.660156 L 25.851562 3.597656 L 26.789062 3.011719 L 28.078125 5.074219 Z M 33.046875 15.109375 L 31.757812 13.046875 L 32.691406 12.464844 L 33.980469 14.523438 Z M 33.046875 15.109375 " fill-opacity="1" fill-rule="nonzero"/></g></svg>