<svg xmlns="http://www.w3.org/2000/svg" xmlns:xlink="http://www.w3.org/1999/xlink" width="50" zoomAndPan="magnify" viewBox="0 0 37.5 37.499999" height="50" preserveAspectRatio="xMidYMid meet" version="1.0"><defs><clipPath id="2c79500664"><path d="M 1.148438 1.148438 L 35.933594 1.148438 L 35.933594 35.933594 L 1.148438 35.933594 Z M 1.148438 1.148438 " clip-rule="nonzero"/></clipPath></defs><g clip-path="url(#2c79500664)"><path fill="#000000" d="M 33.335938 9.386719 C 33.335938 9.382812 33.339844 9.382812 33.339844 9.378906 C 33.359375 9.324219 33.332031 9.261719 33.277344 9.242188 C 33.265625 9.238281 33.253906 9.242188 33.242188 9.242188 C 30.152344 4.386719 24.726562 1.15625 18.558594 1.15625 C 14.601562 1.15625 10.953125 2.488281 8.023438 4.71875 C 7.992188 4.726562 7.96875 4.746094 7.953125 4.777344 C 3.824219 7.960938 1.15625 12.953125 1.15625 18.558594 C 1.15625 28.152344 8.964844 35.960938 18.558594 35.960938 C 28.152344 35.960938 35.957031 28.152344 35.957031 18.558594 C 35.957031 15.195312 34.996094 12.050781 33.335938 9.386719 Z M 32.957031 27.121094 C 31.964844 27.71875 30.765625 28.238281 29.40625 28.675781 C 29.78125 27.003906 30.011719 25.421875 30.117188 23.921875 C 31.558594 23.445312 32.8125 22.871094 33.820312 22.222656 C 33.855469 23.40625 33.828125 24.546875 33.753906 25.613281 C 33.511719 26.132812 33.246094 26.636719 32.957031 27.121094 Z M 11.507812 33.636719 C 11.113281 33.238281 10.75 32.828125 10.40625 32.410156 C 11.488281 32.707031 12.757812 32.988281 14.164062 33.207031 C 14.566406 33.859375 15.035156 34.476562 15.578125 35.046875 C 14.152344 34.789062 12.792969 34.355469 11.515625 33.761719 C 11.539062 33.71875 11.542969 33.671875 11.507812 33.636719 Z M 11.183594 33.601562 C 10.128906 33.082031 9.136719 32.453125 8.222656 31.734375 C 8.734375 31.914062 9.351562 32.113281 10.058594 32.3125 C 10.40625 32.753906 10.777344 33.183594 11.183594 33.601562 Z M 10.183594 32.125 C 9.382812 31.101562 8.734375 30.023438 8.238281 28.898438 C 9.601562 29.328125 11.121094 29.667969 12.742188 29.914062 C 13.046875 30.992188 13.464844 32.015625 14.019531 32.96875 C 12.570312 32.738281 11.273438 32.433594 10.183594 32.125 Z M 3.015625 21.660156 C 3.015625 23.0625 3.195312 24.542969 3.597656 26.09375 C 2.738281 24.394531 2.160156 22.53125 1.925781 20.5625 C 2.214844 20.945312 2.582031 21.308594 3.015625 21.660156 Z M 3.976562 26.667969 C 3.476562 24.964844 3.246094 23.351562 3.234375 21.828125 C 4.179688 22.539062 5.414062 23.171875 6.867188 23.703125 C 6.917969 25.398438 7.246094 27.015625 7.859375 28.550781 C 6.3125 28.027344 4.988281 27.394531 3.976562 26.667969 Z M 4.15625 16.265625 C 5.117188 16.894531 6.324219 17.453125 7.714844 17.921875 C 7.226562 19.511719 6.917969 21.144531 6.867188 22.789062 C 6.859375 23.011719 6.859375 23.230469 6.863281 23.449219 C 5.394531 22.90625 4.15625 22.261719 3.230469 21.542969 C 3.242188 19.640625 3.589844 17.878906 4.15625 16.265625 Z M 3.363281 11.503906 C 3.722656 10.929688 4.117188 10.382812 4.53125 9.871094 C 4.902344 10.496094 5.515625 11.078125 6.328125 11.601562 C 5.429688 12.898438 4.632812 14.347656 4.046875 15.941406 C 3.304688 15.421875 2.730469 14.863281 2.359375 14.269531 C 2.613281 13.308594 2.949219 12.386719 3.363281 11.503906 Z M 4.175781 9.96875 C 4.246094 9.851562 4.320312 9.734375 4.394531 9.617188 C 4.402344 9.632812 4.410156 9.652344 4.417969 9.667969 C 4.339844 9.769531 4.253906 9.867188 4.175781 9.96875 Z M 9.824219 4.261719 C 9.851562 4.257812 9.890625 4.253906 9.953125 4.25 C 10.097656 4.246094 9.972656 4.3125 9.953125 4.363281 C 9.933594 4.417969 9.792969 4.59375 9.703125 4.671875 C 9.617188 4.753906 9.558594 4.804688 9.496094 5 C 9.4375 5.195312 9.496094 5.148438 9.558594 5.035156 C 9.617188 4.917969 9.746094 4.828125 9.964844 4.660156 C 10.183594 4.492188 10.113281 4.578125 10.226562 4.527344 C 10.339844 4.472656 10.425781 4.417969 10.574219 4.339844 C 10.722656 4.257812 10.648438 4.285156 10.753906 4.164062 C 10.859375 4.042969 10.929688 4.058594 11.054688 3.957031 C 11.183594 3.855469 11.25 3.84375 11.300781 3.789062 C 11.355469 3.738281 11.382812 3.714844 11.441406 3.628906 C 11.503906 3.542969 11.582031 3.53125 11.65625 3.421875 C 11.730469 3.316406 11.769531 3.316406 11.832031 3.234375 C 11.839844 3.226562 11.839844 3.21875 11.84375 3.207031 C 12.167969 3.066406 12.496094 2.929688 12.832031 2.808594 C 12.917969 2.96875 13.039062 3.125 13.195312 3.273438 C 12.585938 3.542969 11.949219 3.851562 11.300781 4.199219 C 11.28125 4.203125 11.261719 4.207031 11.234375 4.210938 C 11.175781 4.222656 11.203125 4.21875 11.15625 4.273438 C 10.917969 4.402344 10.671875 4.539062 10.429688 4.683594 C 10.378906 4.695312 10.324219 4.746094 10.246094 4.773438 C 10.164062 4.800781 10.152344 4.828125 10.070312 4.878906 C 10.066406 4.882812 10.070312 4.890625 10.066406 4.898438 C 9.546875 5.207031 9.027344 5.539062 8.511719 5.902344 C 8.394531 5.726562 8.304688 5.546875 8.242188 5.367188 C 8.75 4.96875 9.273438 4.601562 9.824219 4.261719 Z M 10.082031 5.132812 C 10.09375 5.175781 10.097656 5.214844 10.085938 5.242188 C 10.046875 5.335938 10.085938 5.242188 9.992188 5.253906 C 9.914062 5.265625 9.886719 5.285156 9.785156 5.316406 C 9.886719 5.253906 9.984375 5.191406 10.082031 5.132812 Z M 26.222656 3.988281 C 26.324219 4.09375 26.421875 4.183594 26.492188 4.210938 C 26.625 4.265625 26.730469 4.34375 26.851562 4.4375 C 26.972656 4.53125 27.667969 5.375 27.667969 5.375 C 27.667969 5.375 27.707031 5.9375 28.148438 6.054688 C 28.453125 6.140625 28.648438 6.222656 28.777344 6.296875 C 28.570312 6.507812 28.320312 6.714844 28.027344 6.910156 C 27.75 6.625 27.472656 6.355469 27.199219 6.105469 C 26.082031 5.09375 24.949219 4.296875 23.894531 3.667969 C 24.085938 3.554688 24.253906 3.433594 24.394531 3.308594 C 25.015625 3.519531 25.636719 3.746094 26.222656 3.988281 Z M 29.21875 6.390625 C 29.460938 6.324219 29.445312 6.402344 29.726562 6.578125 C 30.007812 6.753906 29.96875 6.671875 30.089844 6.980469 C 30.210938 7.285156 30.234375 7.074219 30.234375 7.472656 C 30.234375 7.875 30.515625 8.128906 30.476562 8.394531 C 30.4375 8.664062 30.589844 8.839844 30.480469 9.066406 C 30.367188 9.292969 30.195312 9.371094 30.304688 9.507812 C 30.410156 9.640625 30.355469 9.613281 30.609375 9.667969 C 30.863281 9.71875 31.359375 9.839844 31.492188 9.949219 C 31.625 10.054688 31.667969 10.242188 31.597656 10.335938 C 31.53125 10.429688 31.480469 10.414062 31.144531 10.644531 C 31.074219 10.691406 31.011719 10.722656 30.957031 10.753906 C 30.632812 10.203125 30.300781 9.6875 29.953125 9.207031 C 30.03125 9.164062 30.09375 9.105469 30.121094 9.03125 C 30.148438 8.949219 30.066406 9.003906 30.121094 8.859375 C 30.171875 8.71875 30.128906 8.832031 30.171875 8.71875 C 30.21875 8.601562 30.226562 8.546875 30.226562 8.546875 C 30.226562 8.546875 30.296875 8.484375 30.316406 8.449219 C 30.332031 8.414062 30.339844 8.398438 30.316406 8.28125 C 30.289062 8.164062 30.316406 8.199219 30.234375 8.113281 C 30.15625 8.023438 30.109375 7.988281 30.039062 7.960938 C 29.96875 7.933594 29.933594 7.914062 29.886719 7.90625 C 29.84375 7.898438 29.84375 7.933594 29.761719 7.878906 C 29.683594 7.828125 29.660156 7.800781 29.566406 7.773438 C 29.46875 7.746094 29.476562 7.753906 29.363281 7.703125 C 29.246094 7.648438 29.199219 7.621094 29.15625 7.601562 C 29.113281 7.585938 29.234375 7.691406 29.113281 7.585938 C 28.988281 7.476562 29.023438 7.523438 28.988281 7.476562 C 28.949219 7.433594 28.976562 7.503906 28.898438 7.371094 C 28.816406 7.238281 28.816406 7.238281 28.816406 7.238281 L 28.703125 7.175781 C 28.703125 7.175781 28.738281 7.121094 28.648438 7.140625 C 28.613281 7.148438 28.566406 7.175781 28.515625 7.140625 C 28.460938 7.105469 28.433594 7.015625 28.40625 7.050781 C 28.382812 7.082031 28.289062 7.109375 28.3125 7.207031 C 28.265625 7.15625 28.21875 7.105469 28.171875 7.054688 C 28.46875 6.855469 28.726562 6.640625 28.941406 6.421875 C 29.003906 6.476562 29.011719 6.449219 29.21875 6.390625 Z M 32.136719 10.121094 C 32.082031 10 32.082031 9.71875 32.320312 9.707031 C 32.492188 9.699219 32.71875 9.8125 32.839844 9.882812 C 32.679688 10.121094 32.484375 10.355469 32.253906 10.585938 C 32.234375 10.28125 32.183594 10.234375 32.136719 10.121094 Z M 32.363281 14.257812 C 32.378906 14.410156 32.347656 14.585938 32.347656 14.695312 C 32.347656 14.816406 32.214844 14.960938 32.160156 15.214844 C 32.109375 15.46875 32 15.335938 32 15.84375 C 32 16.097656 31.984375 16.484375 32.011719 16.859375 C 31.355469 17.179688 30.625 17.476562 29.835938 17.742188 C 29.535156 15.96875 29.0625 14.367188 28.492188 12.941406 C 29.515625 12.582031 30.410156 12.167969 31.15625 11.703125 C 31.234375 11.8125 31.300781 11.917969 31.332031 12.046875 C 31.371094 12.207031 31.425781 12.300781 31.519531 12.355469 C 31.539062 12.367188 31.558594 12.371094 31.578125 12.375 C 31.875 12.996094 32.136719 13.625 32.363281 14.257812 Z M 24.183594 23.003906 C 24.15625 22.992188 24.132812 22.984375 24.097656 22.972656 C 23.871094 22.878906 23.816406 23.039062 23.816406 22.917969 C 23.816406 22.796875 23.816406 22.839844 23.75 22.746094 C 23.683594 22.652344 23.5625 22.625 23.390625 22.554688 C 23.214844 22.488281 23.28125 22.542969 23.214844 22.542969 C 23.148438 22.542969 23.070312 22.582031 22.921875 22.464844 C 22.773438 22.34375 22.921875 22.464844 22.910156 22.421875 C 22.894531 22.382812 22.976562 22.300781 22.976562 22.300781 C 22.976562 22.300781 22.976562 22.300781 22.894531 22.300781 C 22.816406 22.300781 22.789062 22.25 22.734375 22.195312 C 22.679688 22.140625 22.585938 22.0625 22.46875 22.0625 C 22.347656 22.0625 22.398438 22.089844 22.292969 22.128906 C 22.1875 22.167969 21.800781 22.167969 21.800781 22.167969 C 21.800781 22.167969 21.664062 22.167969 21.558594 22.167969 C 21.449219 22.167969 21.476562 22.167969 21.382812 22.167969 C 21.289062 22.167969 21.117188 22.128906 21.117188 22.128906 C 21.117188 22.128906 21.035156 22.074219 20.890625 22.023438 C 20.742188 21.96875 20.824219 21.941406 20.6875 21.929688 C 20.554688 21.914062 20.570312 22.023438 20.5 22.117188 C 20.433594 22.210938 20.5 22.117188 20.40625 22.167969 C 20.3125 22.222656 20.339844 22.316406 20.355469 22.355469 C 20.367188 22.398438 20.355469 22.515625 20.355469 22.515625 C 20.355469 22.515625 20.222656 22.570312 20.140625 22.53125 C 20.058594 22.488281 20.179688 22.183594 20.179688 22.074219 C 20.179688 21.96875 20.179688 22.074219 20.195312 21.980469 C 20.207031 21.886719 20.3125 21.847656 20.300781 21.808594 C 20.289062 21.765625 20.085938 21.914062 20.035156 21.929688 C 19.980469 21.941406 19.820312 22.050781 19.617188 22.195312 C 19.417969 22.34375 19.5 22.261719 19.390625 22.289062 C 19.285156 22.316406 19.285156 22.316406 19.191406 22.449219 C 19.097656 22.582031 19.136719 22.542969 19.097656 22.570312 C 19.058594 22.597656 18.910156 22.917969 18.910156 22.917969 L 18.734375 22.863281 C 18.734375 22.863281 18.734375 22.863281 18.628906 22.757812 C 18.523438 22.648438 18.628906 22.460938 18.558594 22.382812 C 18.542969 22.367188 18.507812 22.367188 18.460938 22.375 C 18.457031 21.691406 18.453125 21.003906 18.457031 20.3125 C 18.476562 20.320312 18.507812 20.328125 18.558594 20.34375 C 18.734375 20.390625 18.628906 20.375 18.734375 20.390625 C 18.84375 20.402344 18.789062 20.496094 18.9375 20.390625 C 19.085938 20.285156 19.085938 20.351562 19.085938 20.285156 C 19.085938 20.214844 18.910156 20.097656 18.796875 20.148438 C 18.65625 20.214844 18.496094 20.109375 18.457031 20.148438 C 18.457031 19.953125 18.457031 19.757812 18.457031 19.558594 C 18.488281 19.5625 18.519531 19.5625 18.546875 19.5625 C 18.53125 19.582031 18.519531 19.597656 18.558594 19.628906 C 18.628906 19.683594 18.339844 19.640625 18.5625 19.761719 C 18.789062 19.882812 18.777344 19.882812 18.9375 19.871094 C 19.097656 19.855469 19.097656 19.933594 19.246094 19.875 C 19.390625 19.816406 19.523438 19.734375 19.523438 19.734375 C 19.523438 19.734375 19.699219 19.707031 19.457031 19.640625 C 19.285156 19.59375 19.167969 19.59375 19.066406 19.5625 C 20.875 19.550781 22.632812 19.429688 24.28125 19.207031 C 24.304688 20.398438 24.277344 21.664062 24.183594 23.003906 Z M 16.570312 20.792969 C 16.464844 20.765625 15.863281 20.765625 15.726562 20.765625 C 15.59375 20.765625 15.753906 20.445312 15.769531 20.378906 C 15.78125 20.3125 15.820312 20.191406 15.847656 20.109375 C 15.875 20.03125 15.914062 19.964844 15.957031 19.871094 C 15.996094 19.777344 15.980469 19.789062 16.023438 19.695312 C 16.0625 19.601562 16.089844 19.574219 16.101562 19.507812 C 16.105469 19.496094 16.109375 19.484375 16.109375 19.476562 C 16.808594 19.519531 17.523438 19.550781 18.246094 19.558594 C 18.242188 20.523438 18.242188 21.488281 18.25 22.445312 C 18.117188 22.503906 17.972656 22.570312 17.90625 22.582031 C 17.773438 22.609375 17.695312 22.597656 17.601562 22.582031 C 17.507812 22.570312 17.320312 22.464844 17.265625 22.410156 C 17.214844 22.355469 17.132812 22.289062 17.132812 22.289062 C 17.132812 22.289062 17.050781 22.167969 17.011719 22.117188 C 16.972656 22.0625 16.984375 22.035156 16.960938 21.996094 C 16.933594 21.953125 16.972656 21.675781 16.972656 21.582031 C 16.972656 21.488281 17.066406 21.40625 17.050781 21.351562 C 17.039062 21.300781 16.675781 20.816406 16.570312 20.792969 Z M 15.125 19.949219 C 15.058594 20.003906 14.980469 20.015625 14.804688 20.015625 C 14.632812 20.015625 14.523438 20.015625 14.417969 20.003906 C 14.3125 19.988281 14.269531 19.976562 14.203125 19.949219 C 14.136719 19.921875 13.910156 19.894531 13.761719 19.777344 C 13.617188 19.65625 13.761719 19.777344 13.710938 19.640625 C 13.65625 19.507812 13.617188 19.453125 13.507812 19.347656 C 13.460938 19.300781 13.421875 19.253906 13.386719 19.207031 C 14.089844 19.300781 14.808594 19.378906 15.539062 19.433594 C 15.453125 19.476562 15.5 19.492188 15.421875 19.535156 C 15.3125 19.585938 15.339844 19.640625 15.191406 19.894531 C 15.046875 20.148438 15.191406 19.894531 15.125 19.949219 Z M 29.941406 9.164062 C 29.941406 9.164062 29.9375 9.167969 29.933594 9.175781 C 29.785156 8.96875 29.632812 8.769531 29.484375 8.574219 C 29.46875 8.519531 29.464844 8.496094 29.398438 8.46875 C 29.203125 8.21875 29 7.976562 28.800781 7.746094 C 28.917969 7.777344 28.925781 7.761719 28.976562 7.800781 C 29.042969 7.84375 29.058594 7.941406 29.121094 7.976562 C 29.183594 8.011719 29.289062 8.011719 29.378906 8.03125 C 29.46875 8.046875 29.46875 8.074219 29.503906 8.113281 C 29.542969 8.148438 29.5625 8.226562 29.566406 8.253906 C 29.566406 8.28125 29.585938 8.363281 29.613281 8.394531 C 29.640625 8.421875 29.613281 8.449219 29.683594 8.511719 C 29.753906 8.574219 29.738281 8.582031 29.835938 8.605469 C 29.933594 8.628906 29.933594 8.628906 29.933594 8.628906 C 29.933594 8.628906 29.953125 8.65625 29.933594 8.761719 C 29.914062 8.871094 29.941406 9.164062 29.941406 9.164062 Z M 28.898438 8.1875 C 28.851562 8.265625 28.796875 8.339844 28.835938 8.394531 C 28.890625 8.46875 28.84375 8.523438 28.945312 8.59375 C 29.042969 8.664062 29.023438 8.664062 29.066406 8.71875 C 29.113281 8.769531 29.03125 8.859375 29.121094 8.949219 C 29.210938 9.039062 29.203125 9.136719 29.324219 9.082031 C 29.449219 9.03125 29.382812 9.136719 29.457031 8.976562 C 29.464844 8.953125 29.476562 8.9375 29.488281 8.925781 C 29.960938 9.550781 30.386719 10.191406 30.769531 10.847656 C 30.683594 10.890625 30.644531 10.929688 30.664062 11.015625 C 30.695312 11.15625 30.882812 11.371094 31.011719 11.523438 C 30.285156 11.96875 29.40625 12.371094 28.40625 12.722656 C 27.785156 11.214844 27.0625 9.902344 26.324219 8.789062 C 26.179688 8.570312 26.035156 8.359375 25.886719 8.152344 C 26.703125 7.871094 27.40625 7.542969 27.988281 7.175781 C 28.308594 7.507812 28.613281 7.84375 28.898438 8.1875 Z M 16.046875 19.257812 C 16.042969 19.257812 16.042969 19.257812 16.042969 19.257812 C 15.109375 19.195312 14.199219 19.105469 13.320312 18.984375 C 13.320312 18.980469 13.320312 18.976562 13.320312 18.960938 C 13.320312 18.917969 13.320312 18.773438 13.320312 18.640625 C 13.320312 18.503906 13.347656 18.425781 13.320312 18.292969 C 13.292969 18.15625 13.375 18.171875 13.402344 18.105469 C 13.429688 18.039062 13.46875 18.066406 13.617188 17.957031 C 13.761719 17.851562 13.617188 17.757812 13.589844 17.714844 C 13.5625 17.675781 13.574219 17.636719 13.574219 17.570312 C 13.574219 17.503906 13.644531 17.515625 13.644531 17.476562 C 13.644531 17.4375 14.097656 17.195312 14.339844 17.113281 C 14.578125 17.035156 14.429688 17.0625 14.578125 17.046875 C 14.726562 17.035156 14.753906 17.101562 15.050781 17.25 C 15.34375 17.394531 15.191406 17.261719 15.300781 17.25 C 15.40625 17.234375 15.488281 17.25 15.582031 17.25 C 15.675781 17.25 15.714844 17.195312 15.726562 17.15625 C 15.742188 17.113281 15.648438 17.0625 15.648438 17.019531 C 15.648438 16.980469 15.820312 17.007812 15.902344 17.007812 C 15.980469 17.007812 16.089844 17.007812 16.234375 17.007812 C 16.382812 17.007812 16.449219 17.019531 16.515625 17.089844 C 16.582031 17.15625 16.636719 17.195312 16.796875 17.277344 C 16.957031 17.355469 16.902344 17.289062 16.996094 17.289062 C 17.089844 17.289062 17.089844 17.289062 17.183594 17.289062 C 17.277344 17.289062 17.238281 17.394531 17.253906 17.515625 C 17.265625 17.636719 17.304688 17.71875 17.304688 17.71875 C 17.304688 17.71875 17.304688 17.71875 17.304688 17.875 C 17.304688 18.039062 17.34375 17.996094 17.386719 18.023438 C 17.425781 18.050781 17.625 18.4375 17.789062 18.414062 C 17.949219 18.386719 17.867188 18.359375 17.921875 18.277344 C 17.972656 18.199219 17.988281 17.96875 17.988281 17.96875 C 17.988281 17.96875 17.894531 17.851562 17.867188 17.796875 C 17.839844 17.742188 17.789062 17.570312 17.773438 17.488281 C 17.761719 17.40625 17.746094 17.289062 17.71875 17.25 C 17.691406 17.207031 17.71875 17.019531 17.707031 16.875 C 17.691406 16.726562 17.761719 16.714844 17.773438 16.660156 C 17.789062 16.605469 17.894531 16.527344 17.921875 16.484375 C 17.949219 16.445312 18.066406 16.367188 18.121094 16.285156 C 18.15625 16.234375 18.214844 16.203125 18.28125 16.171875 C 18.265625 17.167969 18.253906 18.179688 18.246094 19.195312 C 18.125 19.144531 17.949219 19.050781 17.949219 19.050781 C 17.949219 19.050781 17.8125 18.933594 17.707031 18.90625 C 17.601562 18.878906 17.453125 18.90625 17.320312 18.90625 C 17.1875 18.90625 16.890625 18.953125 16.851562 19.050781 C 16.8125 19.148438 16.757812 19.269531 16.757812 19.269531 C 16.757812 19.269531 16.8125 19.269531 16.890625 19.269531 C 16.972656 19.269531 16.972656 19.226562 17.050781 19.199219 C 17.132812 19.175781 17.121094 19.042969 17.226562 19.082031 C 17.332031 19.121094 17.480469 19.027344 17.574219 19.082031 C 17.667969 19.132812 17.8125 19.269531 17.8125 19.269531 C 17.8125 19.269531 17.839844 19.199219 17.882812 19.269531 C 17.894531 19.292969 17.9375 19.316406 17.984375 19.339844 C 17.328125 19.328125 16.683594 19.300781 16.046875 19.257812 Z M 14.761719 6.109375 C 14.980469 6.082031 14.953125 6.003906 15.164062 5.9375 C 15.378906 5.871094 15.394531 5.777344 15.488281 5.828125 C 15.582031 5.882812 15.460938 5.988281 15.59375 6.015625 C 15.726562 6.042969 15.753906 6.160156 15.902344 6.121094 C 16.050781 6.082031 15.929688 6.175781 16.050781 6.082031 C 16.167969 5.988281 16.210938 6.121094 16.167969 5.988281 C 16.128906 5.855469 15.980469 5.777344 15.957031 5.65625 C 15.929688 5.535156 15.875 5.652344 15.902344 5.488281 C 15.929688 5.320312 15.914062 5.292969 15.941406 5.214844 C 15.96875 5.132812 15.96875 5.109375 15.96875 5.027344 C 15.96875 4.945312 16.007812 4.972656 15.792969 4.945312 C 15.78125 4.945312 15.765625 4.945312 15.753906 4.945312 C 15.847656 4.835938 15.941406 4.734375 16.03125 4.632812 C 16.230469 4.578125 16.058594 4.625 16.25 4.574219 C 16.300781 4.558594 16.328125 4.554688 16.34375 4.554688 C 16.351562 4.554688 16.359375 4.558594 16.367188 4.558594 C 16.371094 4.5625 16.375 4.5625 16.378906 4.5625 C 16.5 4.582031 16.625 4.597656 16.75 4.617188 C 16.742188 4.644531 16.777344 4.636719 16.820312 4.675781 C 16.863281 4.71875 16.757812 4.707031 16.863281 4.71875 C 16.972656 4.734375 16.851562 4.71875 16.972656 4.734375 C 17.089844 4.746094 17.066406 4.800781 17.144531 4.734375 C 17.15625 4.726562 17.160156 4.71875 17.167969 4.714844 C 17.007812 5.070312 16.835938 5.460938 16.664062 5.871094 C 16.601562 5.9375 16.613281 5.929688 16.632812 5.945312 C 16.527344 6.183594 16.425781 6.429688 16.320312 6.6875 C 16.273438 6.6875 16.300781 6.632812 16.300781 6.632812 C 16.300781 6.632812 16.300781 6.496094 16.222656 6.457031 C 16.144531 6.417969 16.222656 6.457031 16.101562 6.484375 C 15.980469 6.511719 16.023438 6.496094 15.957031 6.46875 C 15.886719 6.445312 15.78125 6.417969 15.660156 6.351562 C 15.539062 6.285156 15.582031 6.324219 15.5 6.285156 C 15.421875 6.242188 15.40625 6.214844 15.339844 6.121094 C 15.273438 6.03125 15.179688 6.214844 15.140625 6.242188 C 15.101562 6.269531 14.804688 6.351562 14.804688 6.351562 C 14.804688 6.351562 14.804688 6.351562 14.804688 6.296875 C 14.804688 6.242188 14.710938 6.242188 14.710938 6.242188 C 14.710938 6.242188 14.683594 6.25 14.640625 6.257812 C 14.679688 6.207031 14.722656 6.160156 14.761719 6.109375 Z M 17.828125 3.902344 C 17.8125 4.023438 17.894531 4.0625 17.933594 4.070312 C 17.972656 4.078125 17.972656 4.210938 17.972656 4.210938 C 17.972656 4.210938 17.695312 4.371094 17.667969 4.332031 C 17.65625 4.316406 17.628906 4.296875 17.597656 4.28125 C 17.671875 4.121094 17.742188 3.96875 17.808594 3.820312 C 17.820312 3.851562 17.832031 3.875 17.828125 3.902344 Z M 19.042969 3.570312 C 19.085938 3.542969 19.175781 3.300781 19.191406 3.234375 C 19.203125 3.167969 19.191406 3.0625 19.191406 2.980469 C 19.191406 2.902344 19.070312 2.875 18.976562 2.847656 C 18.960938 2.84375 18.945312 2.84375 18.933594 2.84375 C 18.949219 2.453125 18.964844 2.148438 18.976562 1.949219 C 19.128906 2.128906 19.367188 2.433594 19.667969 2.863281 C 19.632812 2.882812 19.59375 2.914062 19.574219 2.933594 C 19.546875 2.960938 19.386719 3.003906 19.378906 3.039062 C 19.367188 3.074219 19.339844 3.15625 19.339844 3.15625 C 19.339844 3.15625 19.414062 3.226562 19.339844 3.269531 C 19.269531 3.316406 19.246094 3.511719 19.277344 3.546875 C 19.316406 3.582031 19.34375 3.601562 19.324219 3.644531 C 19.304688 3.691406 19.199219 3.789062 19.171875 3.804688 C 19.144531 3.824219 19.046875 3.902344 19.039062 3.976562 C 19.03125 4.046875 19.074219 4.152344 19.101562 4.214844 C 19.128906 4.277344 19.191406 4.199219 19.179688 4.347656 C 19.175781 4.421875 19.1875 4.492188 19.214844 4.539062 C 19.09375 4.542969 18.972656 4.546875 18.851562 4.546875 C 18.867188 4.234375 18.878906 3.945312 18.890625 3.675781 C 18.929688 3.636719 19.011719 3.589844 19.042969 3.570312 Z M 18.796875 10.066406 C 18.820312 10.167969 18.734375 10.21875 18.632812 10.261719 C 18.640625 10 18.648438 9.742188 18.660156 9.488281 C 18.742188 9.535156 18.726562 9.558594 18.796875 9.746094 C 18.871094 9.949219 18.761719 9.921875 18.796875 10.066406 Z M 17.507812 4.480469 C 17.515625 4.484375 17.519531 4.484375 17.523438 4.488281 C 17.515625 4.488281 17.511719 4.484375 17.503906 4.484375 C 17.503906 4.484375 17.503906 4.480469 17.507812 4.480469 Z M 18.628906 4.757812 C 18.621094 4.878906 18.617188 5.003906 18.609375 5.128906 C 18.59375 5.117188 18.578125 5.105469 18.558594 5.09375 C 18.472656 5.039062 18.269531 5.027344 18.109375 5.027344 C 17.949219 5.027344 17.734375 5.1875 17.625 5.253906 C 17.519531 5.320312 17.625 5.253906 17.480469 5.589844 C 17.332031 5.921875 17.519531 5.695312 17.546875 5.828125 C 17.574219 5.960938 17.546875 5.828125 17.574219 5.894531 C 17.601562 5.960938 17.707031 6.003906 17.773438 6.136719 C 17.839844 6.269531 17.789062 6.230469 17.773438 6.351562 C 17.761719 6.46875 17.71875 6.496094 17.640625 6.617188 C 17.558594 6.738281 17.585938 6.710938 17.480469 6.75 C 17.371094 6.792969 17.414062 6.738281 17.414062 6.738281 C 17.414062 6.738281 17.441406 6.441406 17.425781 6.402344 C 17.414062 6.363281 17.425781 6.269531 17.371094 6.296875 C 17.320312 6.324219 17.253906 6.375 17.214844 6.308594 C 17.171875 6.242188 17.1875 6.214844 17.1875 6.214844 C 17.1875 6.214844 17.050781 6.136719 17.027344 6.097656 C 17 6.054688 17.050781 5.976562 17.050781 5.976562 C 17.050781 5.976562 17.132812 5.855469 17.132812 5.816406 C 17.132812 5.773438 17.132812 5.683594 17.132812 5.683594 L 17.105469 5.507812 L 17.105469 5.382812 C 17.117188 5.359375 17.125 5.335938 17.136719 5.3125 L 17.226562 5.253906 L 17.425781 5.171875 L 17.46875 5 L 17.546875 4.878906 C 17.546875 4.878906 17.882812 4.894531 17.933594 4.894531 C 17.988281 4.894531 18.296875 4.90625 18.351562 4.90625 C 18.398438 4.90625 18.425781 4.773438 18.429688 4.753906 C 18.492188 4.753906 18.5625 4.757812 18.628906 4.757812 Z M 18.796875 6.097656 C 18.855469 6.121094 18.882812 6.21875 18.9375 6.363281 C 18.992188 6.511719 18.964844 6.484375 19.003906 6.484375 C 19.042969 6.484375 19.125 6.578125 19.125 6.578125 C 19.125 6.578125 19.324219 6.753906 19.324219 6.859375 C 19.324219 6.964844 19.285156 6.964844 19.21875 7.019531 C 19.152344 7.074219 19.125 7.152344 19.109375 7.234375 C 19.097656 7.3125 19.164062 7.445312 19.085938 7.460938 C 19.003906 7.472656 19.003906 7.472656 18.796875 7.472656 C 18.769531 7.472656 18.75 7.476562 18.730469 7.476562 C 18.75 6.992188 18.765625 6.527344 18.785156 6.089844 C 18.789062 6.089844 18.792969 6.09375 18.796875 6.097656 Z M 15.902344 8.839844 C 15.902344 8.824219 15.902344 8.816406 15.902344 8.796875 C 15.902344 8.664062 15.96875 8.582031 16.007812 8.4375 C 16.050781 8.289062 16.089844 8.34375 16.371094 8.128906 C 16.652344 7.914062 16.53125 8.0625 16.636719 8.035156 C 16.746094 8.007812 16.71875 8.023438 16.785156 7.875 C 16.851562 7.726562 16.957031 7.792969 17.117188 7.714844 C 17.277344 7.636719 17.117188 7.714844 17.277344 7.636719 C 17.4375 7.554688 17.277344 7.636719 17.265625 7.488281 C 17.253906 7.339844 17.160156 7.378906 17.332031 7.378906 C 17.507812 7.378906 17.464844 7.3125 17.464844 7.3125 C 17.464844 7.3125 17.464844 7.3125 17.519531 7.21875 C 17.574219 7.125 17.613281 7.246094 17.652344 7.246094 C 17.691406 7.246094 17.773438 7.246094 17.894531 7.179688 C 18.015625 7.113281 18.09375 7.074219 18.160156 7.019531 C 18.226562 6.964844 18.242188 6.953125 18.269531 6.820312 C 18.296875 6.683594 18.214844 6.699219 18.203125 6.605469 C 18.1875 6.511719 18.242188 6.496094 18.226562 6.417969 C 18.214844 6.335938 18.214844 6.296875 18.214844 6.296875 C 18.214844 6.296875 18.214844 6.230469 18.253906 6.136719 C 18.292969 6.042969 18.320312 6.121094 18.402344 6.082031 C 18.480469 6.042969 18.523438 6.070312 18.558594 6.015625 C 18.5625 6.011719 18.570312 6.011719 18.574219 6.011719 C 18.535156 6.90625 18.5 7.910156 18.460938 8.992188 C 17.578125 8.980469 16.722656 8.929688 15.902344 8.839844 Z M 17.613281 4.714844 C 17.609375 4.808594 17.582031 4.800781 17.507812 4.800781 C 17.441406 4.800781 17.398438 4.820312 17.339844 4.855469 C 17.363281 4.800781 17.386719 4.75 17.410156 4.695312 C 17.476562 4.699219 17.542969 4.707031 17.613281 4.714844 Z M 16.738281 6.238281 C 16.761719 6.257812 16.78125 6.273438 16.785156 6.3125 C 16.796875 6.40625 16.785156 6.3125 16.746094 6.378906 C 16.703125 6.445312 16.691406 6.472656 16.613281 6.535156 C 16.65625 6.433594 16.695312 6.335938 16.738281 6.238281 Z M 18.453125 9.207031 C 18.441406 9.585938 18.429688 9.972656 18.414062 10.367188 C 18.355469 10.410156 18.34375 10.457031 18.320312 10.574219 C 18.296875 10.734375 18.390625 10.667969 18.375 10.910156 C 18.363281 11.152344 18.363281 11.03125 18.253906 11.164062 C 18.148438 11.296875 18.09375 11.230469 18.015625 11.21875 C 17.933594 11.203125 17.855469 10.949219 17.828125 10.777344 C 17.800781 10.601562 17.855469 10.601562 17.839844 10.429688 C 17.828125 10.253906 17.773438 10.269531 17.640625 10.175781 C 17.507812 10.082031 17.464844 10.121094 17.332031 10.082031 C 17.199219 10.039062 17.183594 10.054688 17.011719 9.972656 C 16.835938 9.894531 16.984375 9.867188 16.890625 9.761719 C 16.796875 9.652344 16.703125 9.625 16.582031 9.558594 C 16.464844 9.492188 16.371094 9.4375 16.289062 9.414062 C 16.207031 9.386719 16.195312 9.304688 16.179688 9.171875 C 16.175781 9.128906 16.164062 9.101562 16.144531 9.078125 C 16.890625 9.152344 17.660156 9.195312 18.453125 9.207031 Z M 16.261719 12.179688 C 16.316406 12.179688 16.476562 12.058594 16.691406 11.921875 C 16.691406 11.921875 16.691406 11.921875 16.769531 11.964844 C 16.851562 12.011719 16.769531 11.964844 16.757812 12.007812 C 16.746094 12.046875 16.824219 12.046875 16.890625 12.152344 C 16.957031 12.261719 17.304688 12.488281 17.277344 12.554688 C 17.253906 12.621094 17.277344 12.554688 16.824219 12.621094 C 16.371094 12.6875 16.824219 12.621094 16.691406 12.609375 C 16.558594 12.59375 16.558594 12.5 16.476562 12.476562 C 16.394531 12.449219 16.410156 12.382812 16.25 12.367188 C 16.089844 12.355469 16.25 12.367188 16.101562 12.382812 C 15.957031 12.394531 16.035156 12.40625 15.914062 12.382812 C 15.796875 12.355469 15.796875 12.3125 15.796875 12.3125 C 15.796875 12.3125 16.210938 12.179688 16.261719 12.179688 Z M 20.824219 8.921875 C 20.78125 8.847656 20.738281 8.78125 20.6875 8.730469 C 20.609375 8.652344 20.6875 8.730469 20.59375 8.863281 C 20.5 9 20.59375 8.863281 20.617188 8.917969 C 20.617188 8.921875 20.617188 8.929688 20.613281 8.933594 C 20.425781 8.949219 20.234375 8.957031 20.042969 8.964844 C 19.988281 8.9375 19.929688 8.894531 19.875 8.835938 C 19.765625 8.730469 19.859375 8.703125 19.832031 8.570312 C 19.808594 8.4375 19.820312 8.503906 19.726562 8.464844 C 19.632812 8.421875 19.605469 8.421875 19.566406 8.355469 C 19.527344 8.289062 19.417969 8.261719 19.339844 8.234375 C 19.257812 8.210938 19.164062 8.210938 18.964844 8.183594 C 18.761719 8.15625 18.855469 8.222656 18.796875 8.304688 C 18.765625 8.347656 18.726562 8.417969 18.691406 8.523438 C 18.699219 8.308594 18.707031 8.101562 18.714844 7.898438 C 18.742188 7.894531 18.769531 7.886719 18.796875 7.875 C 18.882812 7.835938 18.992188 7.714844 18.992188 7.714844 C 18.992188 7.714844 19.125 7.78125 19.269531 7.914062 C 19.417969 8.046875 19.511719 8.128906 19.605469 8.25 C 19.699219 8.371094 19.78125 8.421875 20.046875 8.304688 C 20.3125 8.183594 20.128906 8.289062 20.3125 8.25 C 20.5 8.210938 20.367188 8.128906 20.3125 8.0625 C 20.261719 7.996094 20.167969 7.980469 20.035156 7.929688 C 19.898438 7.875 19.914062 7.835938 20.035156 7.847656 C 20.152344 7.863281 20.300781 7.863281 20.472656 7.808594 C 20.648438 7.753906 20.542969 7.660156 20.542969 7.660156 C 20.542969 7.660156 20.328125 7.582031 20.113281 7.40625 C 19.898438 7.234375 19.980469 7.261719 19.953125 7.179688 C 19.925781 7.101562 20.128906 7.140625 20.179688 7.140625 C 20.234375 7.140625 20.300781 7.234375 20.433594 7.355469 C 20.566406 7.472656 20.515625 7.328125 20.515625 7.285156 C 20.515625 7.246094 20.460938 7.019531 20.40625 6.871094 C 20.355469 6.726562 20.167969 6.804688 20.101562 6.765625 C 20.035156 6.726562 19.765625 6.484375 19.738281 6.445312 C 19.714844 6.40625 19.699219 5.910156 19.605469 5.84375 C 19.511719 5.777344 19.390625 5.75 19.3125 5.683594 C 19.230469 5.617188 19.125 5.546875 19.042969 5.480469 C 18.972656 5.421875 18.886719 5.332031 18.820312 5.273438 C 18.828125 5.097656 18.835938 4.925781 18.839844 4.761719 C 19.308594 4.761719 19.765625 4.734375 20.207031 4.695312 C 20.304688 4.792969 20.402344 4.894531 20.472656 4.957031 C 20.589844 5.054688 20.726562 5.070312 20.742188 5.332031 C 20.761719 5.589844 20.839844 5.5625 20.964844 5.5625 C 21.089844 5.5625 21.1875 5.617188 21.214844 5.632812 C 21.242188 5.652344 21.152344 5.730469 21.125 5.792969 C 21.097656 5.855469 21 5.929688 21.089844 6.070312 C 21.179688 6.210938 21.019531 6.300781 21.21875 6.273438 C 21.363281 6.253906 21.449219 6.148438 21.503906 6.09375 C 21.523438 6.144531 21.546875 6.195312 21.570312 6.246094 C 21.566406 6.296875 21.558594 6.347656 21.550781 6.398438 C 21.535156 6.550781 21.386719 6.800781 21.578125 6.960938 C 21.765625 7.121094 21.800781 7.195312 21.953125 7.265625 C 21.980469 7.277344 22.003906 7.292969 22.023438 7.304688 C 22.207031 7.75 22.382812 8.226562 22.554688 8.730469 C 21.996094 8.8125 21.417969 8.875 20.824219 8.921875 Z M 19.449219 4.53125 C 19.585938 4.457031 19.726562 4.355469 19.832031 4.375 C 19.9375 4.398438 19.910156 4.425781 19.988281 4.5 C 19.808594 4.511719 19.632812 4.523438 19.449219 4.53125 Z M 22.433594 7.765625 C 22.535156 7.851562 22.550781 7.890625 22.695312 7.941406 C 22.863281 8.003906 22.800781 8.058594 22.898438 8.136719 C 22.996094 8.21875 23.070312 8.210938 23.21875 8.210938 C 23.371094 8.210938 23.433594 8.351562 23.515625 8.371094 C 23.59375 8.386719 23.621094 8.414062 23.683594 8.371094 C 23.746094 8.324219 23.746094 8.433594 23.746094 8.261719 C 23.746094 8.09375 23.78125 8.191406 23.746094 7.996094 C 23.710938 7.800781 23.578125 7.300781 23.453125 7.078125 C 23.328125 6.855469 23.390625 6.863281 23.496094 6.765625 C 23.601562 6.667969 23.71875 6.695312 23.71875 6.523438 C 23.71875 6.355469 23.621094 6.320312 23.71875 6.097656 C 23.757812 6.007812 23.800781 5.976562 23.832031 5.945312 C 24.40625 6.574219 24.988281 7.269531 25.550781 8.046875 C 24.714844 8.316406 23.78125 8.535156 22.769531 8.695312 C 22.660156 8.375 22.550781 8.0625 22.433594 7.765625 Z M 18.636719 4.542969 C 18.335938 4.539062 18.042969 4.527344 17.753906 4.507812 C 17.703125 4.429688 17.976562 4.464844 18.039062 4.425781 C 18.109375 4.386719 18.335938 4.464844 18.335938 4.464844 C 18.335938 4.464844 18.457031 4.492188 18.558594 4.476562 C 18.605469 4.472656 18.617188 4.476562 18.625 4.484375 C 18.628906 4.472656 18.636719 4.449219 18.644531 4.425781 C 18.640625 4.464844 18.640625 4.503906 18.636719 4.542969 Z M 17.585938 3.796875 C 17.496094 3.746094 17.445312 3.707031 17.382812 3.703125 C 17.304688 3.703125 17.398438 3.730469 17.304688 3.703125 C 17.210938 3.675781 17.105469 3.703125 17.105469 3.703125 C 17.050781 3.769531 17.078125 3.691406 17.050781 3.769531 C 17.023438 3.851562 17.023438 3.996094 17.078125 3.988281 C 17.132812 3.984375 17.050781 3.945312 17.132812 3.984375 C 17.210938 4.023438 17.144531 4.023438 17.210938 4.023438 C 17.277344 4.023438 17.269531 3.980469 17.320312 3.988281 C 17.371094 3.996094 17.265625 3.929688 17.371094 3.996094 C 17.417969 4.027344 17.445312 4.039062 17.46875 4.050781 C 17.410156 4.175781 17.347656 4.316406 17.285156 4.449219 C 17.285156 4.449219 17.28125 4.445312 17.28125 4.445312 C 17.28125 4.445312 17.277344 4.453125 17.269531 4.460938 C 17.242188 4.457031 17.214844 4.457031 17.1875 4.453125 C 17.1875 4.449219 17.183594 4.449219 17.1875 4.445312 C 17.199219 4.292969 17.199219 4.292969 17.199219 4.292969 L 17.144531 4.222656 C 17.144531 4.222656 17.109375 4.207031 17.035156 4.222656 C 16.957031 4.238281 16.851562 4.332031 16.859375 4.371094 C 16.863281 4.40625 16.90625 4.371094 16.878906 4.414062 C 16.792969 4.402344 16.703125 4.390625 16.617188 4.375 C 16.621094 4.363281 16.621094 4.351562 16.625 4.328125 C 16.636719 4.210938 16.625 4.082031 16.625 4.082031 C 16.625 4.082031 16.644531 4.007812 16.695312 3.90625 C 17.394531 3.152344 17.972656 2.574219 18.34375 2.21875 C 18.160156 2.582031 17.898438 3.121094 17.585938 3.796875 Z M 19.578125 14.144531 C 19.660156 14.039062 19.765625 14.199219 20.046875 14 C 20.328125 13.796875 20.152344 13.917969 20.179688 13.851562 C 20.207031 13.785156 20.179688 13.773438 20.179688 13.707031 C 20.179688 13.636719 20.234375 13.53125 20.234375 13.492188 C 20.234375 13.449219 20.3125 13.398438 20.394531 13.332031 C 20.472656 13.265625 20.5 13.277344 20.621094 13.222656 C 20.742188 13.171875 20.796875 13.117188 20.835938 13.089844 C 20.875 13.0625 20.917969 12.96875 21.171875 12.808594 C 21.421875 12.648438 21.183594 12.902344 21.15625 12.96875 C 21.128906 13.035156 20.902344 13.222656 20.941406 13.410156 C 20.984375 13.597656 21.007812 13.464844 21.15625 13.4375 C 21.304688 13.410156 21.53125 13.183594 21.570312 13.117188 C 21.609375 13.050781 21.945312 12.796875 21.933594 12.742188 C 21.917969 12.6875 21.917969 12.621094 21.917969 12.621094 C 21.917969 12.621094 21.796875 12.582031 21.636719 12.503906 C 21.476562 12.421875 21.636719 12.503906 21.398438 12.433594 C 21.15625 12.367188 21.398438 12.433594 21.289062 12.316406 C 21.183594 12.195312 21.289062 12.316406 21.144531 12.261719 C 20.996094 12.207031 21.144531 12.261719 21.144531 12.167969 C 21.144531 12.074219 21.277344 12.101562 21.382812 11.921875 C 21.492188 11.742188 21.449219 11.792969 21.382812 11.710938 C 21.316406 11.632812 21.304688 11.699219 21.15625 11.699219 C 21.007812 11.699219 20.996094 11.710938 20.769531 11.78125 C 20.542969 11.847656 20.769531 11.78125 20.675781 11.921875 C 20.582031 12.0625 20.609375 12.019531 20.542969 12.074219 C 20.476562 12.128906 20.410156 12.167969 20.152344 12.195312 C 19.898438 12.222656 20.152344 12.195312 20.195312 12.113281 C 20.234375 12.035156 20.195312 12.113281 20.328125 11.921875 C 20.460938 11.730469 20.449219 11.808594 20.515625 11.714844 C 20.582031 11.621094 20.714844 11.59375 20.808594 11.527344 C 20.902344 11.457031 20.96875 11.484375 21.105469 11.457031 C 21.238281 11.433594 21.519531 11.457031 21.785156 11.445312 C 22.050781 11.433594 22.011719 11.40625 22.078125 11.324219 C 22.148438 11.246094 22.226562 11.085938 22.253906 10.992188 C 22.28125 10.898438 22.347656 10.910156 22.375 10.871094 C 22.402344 10.832031 22.546875 10.695312 22.535156 10.617188 C 22.519531 10.535156 22.507812 10.457031 22.441406 10.414062 C 22.375 10.375 22.308594 10.375 22.171875 10.324219 C 22.039062 10.269531 22.066406 10.296875 22.066406 10.136719 C 22.066406 9.976562 22.066406 10.136719 22.027344 10.121094 C 21.988281 10.109375 21.785156 10.015625 21.625 9.949219 C 21.464844 9.878906 21.546875 9.933594 21.371094 9.894531 C 21.199219 9.855469 21.210938 9.574219 21.144531 9.507812 C 21.085938 9.449219 21.019531 9.269531 20.941406 9.125 C 21.519531 9.078125 22.082031 9.011719 22.625 8.929688 C 22.722656 9.230469 22.824219 9.535156 22.917969 9.851562 C 23.082031 10.40625 23.238281 11.007812 23.386719 11.644531 C 23.339844 11.59375 23.332031 11.597656 23.285156 11.546875 C 23.222656 11.480469 23.390625 11.484375 23.195312 11.445312 C 23.003906 11.40625 22.9375 11.394531 22.882812 11.40625 C 22.828125 11.417969 22.796875 11.414062 22.796875 11.414062 C 22.796875 11.414062 22.777344 11.40625 22.75 11.378906 C 22.722656 11.351562 22.6875 11.285156 22.6875 11.230469 C 22.6875 11.179688 22.6875 11.113281 22.6875 11.070312 C 22.6875 11.03125 22.714844 10.984375 22.683594 10.992188 C 22.648438 11 22.617188 10.992188 22.617188 10.992188 C 22.507812 11.144531 22.386719 11.210938 22.394531 11.257812 C 22.402344 11.304688 22.378906 11.378906 22.394531 11.414062 C 22.410156 11.445312 22.398438 11.488281 22.390625 11.539062 C 22.382812 11.59375 22.355469 11.585938 22.335938 11.6875 C 22.3125 11.789062 22.273438 11.863281 22.273438 11.886719 C 22.273438 11.914062 22.246094 11.929688 22.273438 12 C 22.300781 12.074219 22.09375 12.042969 22.300781 12.074219 C 22.507812 12.109375 22.441406 12.0625 22.65625 12.074219 C 22.867188 12.089844 22.808594 12.054688 22.996094 12.027344 C 23.183594 12 23.238281 11.953125 23.277344 11.960938 C 23.316406 11.96875 23.230469 12.03125 23.195312 12.085938 C 23.164062 12.140625 23.285156 12.140625 23.371094 12.140625 C 23.433594 12.140625 23.464844 12.167969 23.503906 12.164062 C 23.617188 12.6875 23.71875 13.234375 23.8125 13.8125 C 22.472656 14.007812 21.046875 14.128906 19.570312 14.160156 C 19.574219 14.152344 19.574219 14.152344 19.578125 14.144531 Z M 23.683594 11.984375 C 23.6875 11.96875 23.683594 11.953125 23.671875 11.929688 C 23.5 11.160156 23.316406 10.445312 23.121094 9.792969 C 23.03125 9.484375 22.933594 9.1875 22.839844 8.894531 C 23.867188 8.730469 24.820312 8.5 25.671875 8.222656 C 25.832031 8.449219 25.992188 8.675781 26.152344 8.914062 C 26.875 10.011719 27.589844 11.304688 28.203125 12.792969 C 26.964844 13.207031 25.550781 13.542969 24.023438 13.78125 C 23.921875 13.148438 23.804688 12.550781 23.683594 11.984375 Z M 25.761719 7.980469 C 25.15625 7.136719 24.527344 6.378906 23.90625 5.707031 C 23.90625 5.691406 23.90625 5.679688 23.90625 5.660156 C 23.886719 5.3125 23.96875 5.4375 24.023438 5.339844 C 24.074219 5.242188 23.933594 5.097656 23.789062 5.007812 C 23.648438 4.917969 23.335938 4.707031 23.238281 4.574219 C 23.183594 4.496094 23.023438 4.304688 22.875 4.140625 C 23.167969 4.035156 23.441406 3.917969 23.679688 3.789062 C 24.753906 4.417969 25.914062 5.230469 27.054688 6.265625 C 27.328125 6.515625 27.589844 6.769531 27.84375 7.027344 C 27.273438 7.386719 26.574219 7.707031 25.761719 7.980469 Z M 22.707031 3.96875 C 22.660156 3.925781 22.617188 3.890625 22.585938 3.875 C 22.453125 3.816406 22.542969 3.976562 22.320312 3.714844 C 22.097656 3.457031 21.992188 3.484375 21.890625 3.449219 C 21.792969 3.414062 21.714844 3.371094 21.597656 3.269531 C 21.480469 3.171875 21.5625 3.226562 21.4375 3.15625 C 21.3125 3.085938 21.285156 3.039062 21.0625 2.886719 C 20.929688 2.796875 20.816406 2.800781 20.742188 2.816406 C 20.234375 2.425781 19.800781 2.132812 19.488281 1.929688 C 19.546875 1.941406 19.617188 1.957031 19.683594 1.976562 C 20.410156 2.203125 21.8125 2.710938 23.464844 3.660156 C 23.234375 3.773438 22.984375 3.875 22.707031 3.96875 Z M 20.460938 2.871094 C 20.441406 2.867188 20.394531 2.84375 20.296875 2.78125 C 20.046875 2.621094 19.894531 2.558594 19.832031 2.585938 C 19.808594 2.59375 19.78125 2.609375 19.757812 2.621094 C 19.621094 2.425781 19.492188 2.253906 19.382812 2.117188 C 19.660156 2.292969 20.023438 2.542969 20.460938 2.871094 Z M 18.714844 2.917969 C 18.605469 2.9375 18.441406 3.0625 18.363281 3.101562 C 18.296875 3.132812 18.207031 3.203125 18.035156 3.335938 C 18.402344 2.5625 18.667969 2.046875 18.765625 1.851562 C 18.757812 2.050781 18.738281 2.414062 18.714844 2.917969 Z M 16.066406 4.273438 C 15.996094 4.257812 15.925781 4.242188 15.855469 4.226562 C 15.863281 4.21875 15.867188 4.21875 15.875 4.210938 C 16.023438 4.089844 15.96875 4.175781 16.089844 4.082031 C 16.210938 3.984375 16.023438 4.0625 16.210938 3.984375 C 16.398438 3.902344 16.398438 3.902344 16.398438 3.902344 L 16.398438 3.757812 L 16.183594 3.769531 C 16.167969 3.796875 16.261719 3.609375 16.035156 3.769531 C 15.808594 3.929688 15.714844 3.902344 15.6875 3.945312 C 15.660156 3.984375 15.566406 4.082031 15.566406 4.082031 C 15.566406 4.082031 15.421875 3.988281 15.433594 4.082031 C 15.4375 4.097656 15.4375 4.109375 15.4375 4.121094 C 15.25 4.070312 15.074219 4.015625 14.902344 3.953125 C 16.308594 3.054688 17.480469 2.433594 18.152344 2.101562 C 17.699219 2.542969 16.957031 3.289062 16.066406 4.273438 Z M 15.855469 4.460938 C 15.835938 4.480469 15.828125 4.5 15.796875 4.546875 C 15.726562 4.640625 15.554688 4.613281 15.726562 4.640625 C 15.730469 4.640625 15.734375 4.640625 15.738281 4.640625 C 15.640625 4.753906 15.542969 4.859375 15.441406 4.976562 C 15.429688 4.964844 15.421875 4.945312 15.421875 4.90625 C 15.421875 4.734375 15.339844 4.878906 15.421875 4.734375 C 15.5 4.585938 15.566406 4.464844 15.515625 4.453125 C 15.460938 4.4375 15.300781 4.453125 15.300781 4.453125 C 15.179688 4.480469 14.941406 4.480469 14.792969 4.597656 C 14.644531 4.71875 14.617188 4.707031 14.523438 4.828125 C 14.429688 4.945312 14.378906 4.945312 14.351562 4.988281 C 14.324219 5.027344 14.164062 5.101562 14.242188 5.132812 C 14.324219 5.160156 14.351562 5.089844 14.445312 5.132812 C 14.539062 5.175781 14.617188 5.265625 14.617188 5.265625 C 14.617188 5.265625 14.617188 5.320312 14.632812 5.375 C 14.644531 5.425781 14.472656 5.5625 14.484375 5.601562 C 14.5 5.640625 14.445312 5.75 14.484375 5.828125 C 14.523438 5.90625 14.46875 5.886719 14.582031 5.992188 C 14.503906 6.085938 14.429688 6.179688 14.351562 6.273438 C 14.320312 6.273438 14.308594 6.273438 14.285156 6.257812 C 14.246094 6.230469 14.246094 6.136719 14.246094 6.136719 C 14.246094 6.136719 14.363281 6.054688 14.363281 6.015625 C 14.363281 5.976562 14.351562 5.921875 14.351562 5.921875 L 14.257812 5.800781 C 14.257812 5.800781 14.109375 5.65625 14.089844 5.617188 C 14.070312 5.574219 13.964844 5.546875 13.964844 5.546875 C 13.964844 5.546875 13.9375 5.386719 13.9375 5.253906 C 13.9375 5.121094 13.804688 5.148438 13.804688 5.148438 C 13.804688 5.148438 13.695312 5.148438 13.601562 5.148438 C 13.507812 5.148438 13.457031 5.1875 13.386719 5.199219 C 13.324219 5.210938 13.246094 5.203125 13.074219 5.199219 C 13.621094 4.800781 14.15625 4.4375 14.660156 4.109375 C 15.023438 4.246094 15.421875 4.363281 15.855469 4.460938 Z M 12.902344 5.324219 C 12.90625 5.324219 12.910156 5.320312 12.914062 5.320312 C 12.910156 5.320312 12.910156 5.324219 12.902344 5.324219 Z M 18.558594 24.109375 C 18.519531 24.121094 18.503906 24.148438 18.484375 24.171875 C 18.476562 23.8125 18.472656 23.453125 18.46875 23.089844 C 18.476562 23.113281 18.480469 23.132812 18.480469 23.132812 L 18.617188 23.199219 C 18.617188 23.199219 18.628906 24.082031 18.558594 24.109375 Z M 18.816406 19.351562 C 18.789062 19.351562 18.765625 19.351562 18.742188 19.347656 C 18.734375 19.34375 18.730469 19.339844 18.722656 19.335938 C 18.644531 19.269531 18.699219 19.199219 18.507812 19.214844 C 18.488281 19.214844 18.476562 19.21875 18.460938 19.21875 C 18.464844 18.152344 18.476562 17.085938 18.492188 16.039062 C 18.542969 16 18.589844 15.964844 18.65625 15.925781 C 18.761719 15.859375 18.65625 15.925781 18.796875 15.765625 C 18.9375 15.605469 18.789062 15.628906 18.796875 15.523438 C 18.804688 15.417969 18.871094 14.949219 18.949219 14.988281 C 19.03125 15.027344 18.949219 14.988281 19.125 15.003906 C 19.296875 15.015625 19.125 15.003906 19.191406 14.855469 C 19.257812 14.707031 19.339844 14.695312 19.367188 14.628906 C 19.390625 14.5625 19.417969 14.496094 19.457031 14.375 C 20.992188 14.347656 22.464844 14.230469 23.847656 14.03125 C 24.078125 15.515625 24.234375 17.167969 24.277344 18.992188 C 22.554688 19.226562 20.714844 19.351562 18.816406 19.351562 Z M 24.058594 14 C 25.609375 13.765625 27.039062 13.429688 28.289062 13.007812 C 28.859375 14.433594 29.332031 16.035156 29.628906 17.8125 C 28.109375 18.308594 26.371094 18.699219 24.492188 18.964844 C 24.449219 17.140625 24.289062 15.484375 24.058594 14 Z M 23.691406 3.542969 C 22.890625 3.078125 22.152344 2.71875 21.503906 2.4375 C 22.3125 2.65625 23.230469 2.921875 24.15625 3.230469 C 24.019531 3.339844 23.867188 3.445312 23.691406 3.542969 Z M 18.269531 1.808594 C 17.628906 2.117188 16.28125 2.808594 14.644531 3.863281 C 14.238281 3.707031 13.886719 3.523438 13.609375 3.328125 C 15.605469 2.464844 17.257812 2.003906 18.007812 1.8125 C 18.097656 1.8125 18.183594 1.808594 18.269531 1.808594 Z M 14.417969 4.015625 C 13.886719 4.363281 13.335938 4.742188 12.765625 5.160156 C 12.765625 5.136719 12.769531 5.117188 12.757812 5.09375 C 12.734375 5.011719 12.707031 4.917969 12.664062 4.851562 C 12.625 4.785156 12.613281 4.691406 12.585938 4.597656 C 12.558594 4.503906 12.570312 4.503906 12.519531 4.410156 C 12.464844 4.316406 12.371094 4.222656 12.34375 4.144531 C 12.316406 4.0625 12.292969 4.0625 12.210938 4.078125 C 12.132812 4.089844 12.128906 4.0625 12.0625 4.089844 C 12.03125 4.105469 12.011719 4.09375 11.976562 4.085938 C 12.457031 3.84375 12.921875 3.625 13.375 3.425781 C 13.652344 3.644531 14 3.84375 14.417969 4.015625 Z M 10.78125 4.734375 C 10.742188 4.785156 10.714844 4.785156 10.660156 4.8125 C 10.648438 4.820312 10.636719 4.816406 10.628906 4.808594 C 10.683594 4.78125 10.734375 4.753906 10.785156 4.722656 C 10.785156 4.726562 10.785156 4.730469 10.78125 4.734375 Z M 9.511719 6.472656 C 9.550781 6.472656 9.457031 6.539062 9.390625 6.566406 C 9.34375 6.589844 9.332031 6.660156 9.320312 6.722656 C 9.273438 6.683594 9.226562 6.648438 9.179688 6.609375 C 9.269531 6.566406 9.480469 6.472656 9.511719 6.472656 Z M 9.578125 6.792969 C 9.617188 6.792969 9.738281 6.726562 9.738281 6.726562 C 9.738281 6.726562 9.898438 6.65625 9.910156 6.578125 C 9.925781 6.5 9.964844 6.953125 9.964844 6.953125 C 9.964844 6.953125 9.988281 7.070312 10 7.167969 C 9.796875 7.054688 9.609375 6.933594 9.4375 6.808594 C 9.496094 6.804688 9.558594 6.792969 9.578125 6.792969 Z M 10.152344 7.585938 C 10.179688 7.664062 10.21875 7.78125 10.207031 7.835938 C 10.191406 7.886719 10.179688 7.957031 10.136719 8.007812 C 10.097656 8.0625 10.097656 8.382812 10.042969 8.4375 C 9.992188 8.492188 10.042969 8.570312 10.003906 8.730469 C 9.964844 8.890625 10.042969 8.933594 10.042969 8.933594 L 10.003906 9.132812 C 10.003906 9.132812 9.9375 9.359375 9.898438 9.441406 C 9.859375 9.519531 9.832031 9.613281 9.832031 9.613281 C 9.832031 9.613281 9.871094 9.882812 9.777344 9.960938 C 9.683594 10.042969 9.777344 9.960938 9.738281 10.003906 C 9.699219 10.042969 9.683594 10.164062 9.65625 10.257812 C 9.632812 10.351562 9.777344 10.550781 9.792969 10.617188 C 9.804688 10.683594 9.804688 10.75 9.792969 10.804688 C 9.777344 10.859375 9.84375 11.003906 9.804688 11.097656 C 9.765625 11.191406 9.644531 11.660156 9.578125 11.792969 C 9.511719 11.929688 9.363281 12.128906 9.269531 12.261719 C 9.179688 12.386719 9.160156 12.460938 9.035156 12.679688 C 8.113281 12.347656 7.304688 11.972656 6.625 11.554688 C 7.539062 10.261719 8.554688 9.125 9.550781 8.152344 C 9.753906 7.957031 9.953125 7.769531 10.152344 7.585938 Z M 9.125 14.839844 C 9.175781 14.875 9.191406 14.898438 9.285156 15.003906 C 9.402344 15.136719 9.402344 15.871094 9.429688 16.003906 C 9.457031 16.136719 9.632812 16.21875 9.632812 16.21875 C 9.632812 16.21875 9.644531 16.3125 9.632812 16.378906 C 9.617188 16.445312 9.632812 16.566406 9.578125 16.621094 C 9.527344 16.671875 9.589844 16.699219 9.589844 16.699219 C 9.589844 16.699219 9.5625 16.765625 9.589844 16.820312 C 9.617188 16.875 9.589844 16.941406 9.589844 16.941406 C 9.589844 16.941406 9.722656 17.035156 9.804688 17.074219 C 9.886719 17.113281 9.953125 17.15625 9.9375 17.195312 C 9.925781 17.234375 9.964844 17.542969 9.976562 17.648438 C 9.992188 17.757812 10.03125 17.757812 10.03125 17.808594 C 10.03125 17.863281 10.179688 18.078125 10.179688 18.117188 C 10.179688 18.15625 10.296875 18.222656 10.296875 18.222656 L 10.367188 18.222656 C 10.367188 18.222656 10.390625 18.050781 10.390625 18.011719 C 10.390625 17.96875 10.390625 17.890625 10.390625 17.890625 C 10.390625 17.890625 10.367188 17.824219 10.296875 17.769531 C 10.230469 17.714844 10.207031 17.554688 10.207031 17.554688 C 10.207031 17.554688 10.207031 17.367188 10.179688 17.328125 C 10.152344 17.289062 10.085938 16.996094 10.085938 16.996094 L 10.042969 16.765625 C 10.042969 16.765625 9.976562 16.539062 9.964844 16.5 C 9.949219 16.460938 9.949219 16.40625 9.925781 16.351562 C 9.898438 16.300781 9.910156 16.152344 9.910156 16.152344 L 9.804688 15.789062 C 9.804688 15.789062 9.992188 15.738281 10.101562 15.789062 C 10.207031 15.84375 10.21875 16.113281 10.113281 16.273438 C 10.003906 16.433594 10.660156 17.128906 10.660156 17.128906 C 10.660156 17.128906 10.671875 17.277344 10.660156 17.367188 C 10.644531 17.460938 10.792969 17.488281 10.792969 17.582031 C 10.792969 17.675781 11.246094 18.414062 11.316406 18.613281 C 11.320312 18.625 11.320312 18.640625 11.324219 18.65625 C 10.125 18.421875 9 18.132812 7.976562 17.796875 C 8.296875 16.789062 8.6875 15.800781 9.125 14.839844 Z M 11.335938 18.871094 C 11.328125 18.996094 11.308594 19.136719 11.316406 19.308594 C 11.328125 19.601562 11.621094 19.777344 11.621094 19.777344 L 11.945312 20.003906 L 12.210938 20.097656 C 12.210938 20.097656 12.285156 20.136719 12.394531 20.195312 C 12.179688 21.710938 12.054688 23.261719 12.070312 24.789062 C 10.230469 24.480469 8.542969 24.050781 7.078125 23.527344 C 7.074219 23.285156 7.074219 23.042969 7.082031 22.796875 C 7.132812 21.175781 7.4375 19.5625 7.917969 17.992188 C 8.964844 18.339844 10.113281 18.632812 11.335938 18.871094 Z M 12.597656 20.296875 C 12.929688 20.464844 13.394531 20.683594 13.640625 20.722656 C 14.054688 20.792969 14.230469 20.632812 14.417969 20.722656 C 14.605469 20.816406 14.914062 21.152344 15.085938 21.339844 C 15.261719 21.527344 15.246094 21.40625 15.355469 21.472656 C 15.460938 21.539062 15.5 21.488281 15.742188 21.554688 C 15.980469 21.621094 16.222656 22.089844 16.222656 22.195312 C 16.222656 22.300781 16.300781 22.398438 16.394531 22.554688 C 16.488281 22.71875 16.554688 22.554688 16.703125 22.554688 C 16.851562 22.554688 16.945312 22.917969 17.011719 22.902344 C 17.078125 22.890625 17.292969 22.890625 17.292969 22.890625 C 17.292969 22.890625 17.519531 23.023438 17.625 23.132812 L 17.800781 22.972656 L 17.988281 22.824219 L 18.148438 22.757812 C 18.148438 22.757812 18.199219 22.777344 18.253906 22.800781 C 18.257812 23.300781 18.265625 23.792969 18.273438 24.285156 C 18.183594 24.351562 18.089844 24.4375 18.027344 24.480469 C 17.933594 24.550781 17.867188 24.898438 17.761719 25.125 C 17.730469 25.183594 17.710938 25.25 17.699219 25.316406 C 15.808594 25.265625 13.984375 25.097656 12.28125 24.824219 C 12.269531 23.320312 12.386719 21.796875 12.597656 20.296875 Z M 17.671875 25.53125 C 17.667969 25.605469 17.667969 25.671875 17.667969 25.683594 C 17.667969 25.726562 17.773438 25.832031 17.773438 25.941406 C 17.773438 26.046875 17.773438 25.941406 17.71875 25.953125 C 17.667969 25.964844 17.585938 26.167969 17.535156 26.234375 C 17.480469 26.300781 17.535156 26.542969 17.535156 26.621094 C 17.535156 26.699219 17.640625 26.808594 17.761719 26.847656 C 17.847656 26.878906 18.160156 27.042969 18.351562 27.171875 C 18.390625 28.207031 18.4375 29.199219 18.5 30.144531 C 16.558594 30.128906 14.671875 29.984375 12.910156 29.722656 C 12.503906 28.242188 12.316406 26.664062 12.285156 25.054688 C 13.972656 25.320312 15.785156 25.484375 17.671875 25.53125 Z M 18.570312 27.40625 C 18.648438 27.527344 18.738281 27.6875 18.789062 27.746094 C 18.855469 27.824219 18.84375 27.984375 18.796875 28.066406 C 18.75 28.144531 18.925781 28.171875 18.964844 28.28125 C 19.003906 28.386719 19.070312 28.375 19.097656 28.441406 C 19.125 28.507812 19.230469 28.601562 19.296875 28.707031 C 19.363281 28.8125 19.699219 28.949219 19.875 28.960938 C 20.046875 28.976562 20.554688 29.09375 20.609375 29.257812 C 20.628906 29.316406 20.605469 29.671875 20.566406 30.109375 C 19.988281 30.132812 19.40625 30.148438 18.816406 30.148438 C 18.78125 30.148438 18.746094 30.144531 18.714844 30.144531 C 18.65625 29.273438 18.609375 28.355469 18.570312 27.40625 Z M 18.816406 30.363281 C 19.398438 30.363281 19.972656 30.347656 20.546875 30.324219 C 20.46875 31.027344 20.351562 31.839844 20.261719 31.957031 C 20.109375 32.148438 20.066406 32.097656 19.777344 33.34375 C 19.519531 33.351562 19.265625 33.359375 19.011719 33.359375 C 18.898438 32.453125 18.804688 31.441406 18.730469 30.359375 C 18.757812 30.359375 18.785156 30.363281 18.816406 30.363281 Z M 22.214844 33.09375 C 22.238281 33.050781 22.453125 33.039062 22.507812 33.027344 C 22.507812 33.027344 22.507812 33.027344 22.511719 33.027344 C 22.5 33.058594 22.492188 33.09375 22.484375 33.128906 C 22.382812 33.144531 22.289062 33.152344 22.191406 33.164062 C 22.199219 33.128906 22.207031 33.101562 22.214844 33.09375 Z M 26.816406 24.574219 C 26.65625 24.523438 26.648438 24.535156 26.558594 24.523438 C 26.464844 24.507812 26.316406 24.496094 26.089844 24.402344 C 25.863281 24.308594 25.648438 24.429688 25.648438 24.429688 L 25.890625 24.214844 C 25.890625 24.214844 25.902344 24.039062 25.769531 23.800781 C 25.597656 22.984375 24.550781 23.050781 24.472656 23.050781 C 24.449219 23.050781 24.421875 23.050781 24.394531 23.050781 C 24.488281 21.6875 24.519531 20.394531 24.496094 19.179688 C 26.386719 18.914062 28.132812 18.519531 29.664062 18.019531 C 29.941406 19.765625 30.046875 21.683594 29.910156 23.769531 C 28.957031 24.078125 27.917969 24.351562 26.816406 24.574219 Z M 29.871094 17.953125 C 30.65625 17.6875 31.378906 17.394531 32.035156 17.078125 C 32.074219 17.375 32.148438 17.652344 32.296875 17.824219 C 32.65625 18.25 32.65625 18.222656 32.640625 18.558594 C 32.628906 18.894531 32.628906 19.09375 32.710938 19.148438 C 32.789062 19.199219 32.964844 19.523438 33.042969 19.628906 C 33.125 19.734375 33.109375 19.855469 33.230469 20.015625 C 33.347656 20.167969 33.257812 20.238281 33.699219 20.363281 C 33.753906 20.90625 33.789062 21.445312 33.8125 21.980469 C 32.820312 22.632812 31.574219 23.210938 30.132812 23.699219 C 30.257812 21.613281 30.152344 19.699219 29.871094 17.953125 Z M 33.671875 11.472656 C 33.671875 11.472656 33.363281 11.285156 33.308594 11.351562 C 33.257812 11.417969 32.964844 11.78125 32.964844 11.78125 C 32.964844 11.78125 32.84375 12.179688 32.816406 12.222656 C 32.789062 12.261719 32.226562 12.714844 32.199219 12.753906 C 32.179688 12.792969 32.132812 12.90625 32.113281 13.046875 C 32.011719 12.8125 31.910156 12.582031 31.800781 12.355469 C 31.820312 12.355469 31.835938 12.351562 31.855469 12.355469 C 32.027344 12.367188 32.269531 12.34375 32.308594 12.375 C 32.347656 12.410156 32.46875 12.355469 32.589844 12.207031 C 32.710938 12.0625 32.65625 11.96875 32.589844 11.738281 C 32.523438 11.511719 32.390625 11.390625 32.363281 11.21875 C 32.34375 11.089844 32.300781 11.035156 32.273438 10.867188 C 32.558594 10.605469 32.796875 10.332031 32.988281 10.046875 C 33.261719 10.511719 33.511719 10.988281 33.742188 11.476562 Z M 25.839844 3.605469 C 25.421875 3.441406 24.992188 3.285156 24.5625 3.140625 C 24.613281 3.082031 24.65625 3.027344 24.695312 2.96875 C 25.039062 3.105469 25.378906 3.25 25.714844 3.40625 C 25.742188 3.472656 25.789062 3.542969 25.839844 3.605469 Z M 24.339844 3.0625 C 22.796875 2.546875 21.261719 2.140625 20.21875 1.882812 C 21.707031 2.03125 23.140625 2.375 24.492188 2.890625 C 24.445312 2.949219 24.394531 3.007812 24.339844 3.0625 Z M 16.976562 1.875 C 16.082031 2.140625 14.832031 2.5625 13.417969 3.175781 C 13.257812 3.035156 13.125 2.890625 13.039062 2.738281 C 14.292969 2.300781 15.609375 2.003906 16.976562 1.875 Z M 8.707031 6.027344 C 8.699219 6.0625 8.691406 6.09375 8.6875 6.125 C 8.671875 6.109375 8.65625 6.089844 8.640625 6.074219 C 8.660156 6.058594 8.6875 6.042969 8.707031 6.027344 Z M 8.621094 6.355469 C 8.609375 6.425781 8.636719 6.457031 8.613281 6.566406 C 8.585938 6.699219 8.613281 6.566406 8.535156 6.605469 C 8.515625 6.613281 8.503906 6.617188 8.5 6.621094 C 8.5 6.621094 8.5 6.621094 8.496094 6.625 C 8.496094 6.625 8.492188 6.625 8.480469 6.632812 C 8.425781 6.65625 8.402344 6.710938 8.347656 6.710938 C 8.292969 6.710938 8.160156 6.792969 8.160156 6.792969 C 8.160156 6.792969 8.039062 6.859375 7.960938 6.859375 C 7.878906 6.859375 7.890625 6.925781 7.800781 6.9375 C 7.707031 6.953125 7.679688 6.953125 7.597656 6.953125 C 7.519531 6.953125 7.597656 7.085938 7.597656 7.085938 C 7.597656 7.085938 7.878906 7.113281 7.984375 7.101562 C 8.09375 7.085938 8.132812 7.074219 8.214844 7.046875 C 8.292969 7.019531 8.453125 7.019531 8.519531 6.980469 C 8.585938 6.9375 8.75 6.847656 8.75 6.847656 C 8.75 6.847656 8.949219 6.804688 9 6.792969 C 9.023438 6.789062 9.039062 6.773438 9.050781 6.753906 C 9.332031 6.984375 9.660156 7.203125 10.03125 7.40625 C 9.820312 7.597656 9.613281 7.792969 9.40625 7.992188 C 8.398438 8.980469 7.371094 10.128906 6.445312 11.4375 C 5.625 10.910156 5.023438 10.324219 4.675781 9.691406 C 5.816406 8.320312 7.125 7.160156 8.480469 6.191406 C 8.523438 6.246094 8.574219 6.300781 8.621094 6.355469 Z M 6.511719 11.71875 C 7.199219 12.140625 8.011719 12.523438 8.9375 12.859375 C 8.878906 12.972656 8.894531 12.984375 8.894531 12.984375 C 8.894531 12.984375 8.933594 13.519531 8.910156 13.730469 C 8.882812 13.945312 8.894531 14.441406 8.910156 14.601562 C 8.914062 14.671875 8.925781 14.703125 8.945312 14.722656 C 8.496094 15.699219 8.097656 16.703125 7.777344 17.730469 C 6.382812 17.253906 5.179688 16.695312 4.230469 16.0625 C 4.8125 14.464844 5.609375 13.015625 6.511719 11.71875 Z M 7.085938 23.785156 C 8.554688 24.300781 10.234375 24.722656 12.070312 25.019531 C 12.097656 26.625 12.285156 28.203125 12.679688 29.6875 C 11.03125 29.433594 9.496094 29.082031 8.125 28.640625 C 7.488281 27.105469 7.144531 25.484375 7.085938 23.785156 Z M 12.976562 29.949219 C 14.726562 30.203125 16.59375 30.34375 18.515625 30.355469 C 18.589844 31.441406 18.683594 32.453125 18.792969 33.363281 C 17.195312 33.355469 15.679688 33.21875 14.296875 33.011719 C 13.722656 32.058594 13.289062 31.03125 12.976562 29.949219 Z M 19.726562 33.558594 C 19.726562 33.558594 19.726562 33.558594 19.726562 33.5625 C 19.390625 35.03125 19.726562 35.257812 19.726562 35.257812 C 19.726562 35.257812 19.941406 35.234375 19.980469 35.191406 C 20.019531 35.152344 20.273438 35.152344 20.339844 35.113281 C 20.40625 35.074219 20.40625 35.058594 20.449219 34.992188 C 20.488281 34.925781 20.542969 34.871094 20.542969 34.871094 C 20.542969 34.871094 20.703125 34.710938 20.753906 34.632812 C 20.808594 34.550781 20.890625 34.496094 20.917969 34.417969 C 20.941406 34.335938 20.917969 34.324219 20.917969 34.324219 C 20.917969 34.324219 20.96875 34.175781 20.984375 34.125 C 20.996094 34.070312 21.078125 34.097656 21.144531 34.070312 C 21.210938 34.042969 21.289062 34.003906 21.316406 33.949219 C 21.34375 33.894531 21.382812 33.761719 21.382812 33.683594 C 21.382812 33.601562 21.492188 33.5625 21.570312 33.523438 C 21.652344 33.480469 21.746094 33.589844 21.933594 33.574219 C 22.015625 33.570312 22.074219 33.484375 22.113281 33.386719 C 22.21875 33.375 22.320312 33.363281 22.421875 33.351562 C 22.28125 33.882812 22.132812 34.421875 21.972656 34.964844 C 21.109375 35.144531 20.222656 35.257812 19.320312 35.296875 C 19.214844 34.78125 19.121094 34.203125 19.039062 33.574219 C 19.265625 33.574219 19.496094 33.566406 19.726562 33.558594 Z M 22.652344 33.328125 C 24.527344 33.085938 26.445312 32.65625 28.386719 32.058594 C 28.386719 32.058594 28.390625 32.058594 28.390625 32.058594 C 28.414062 32.058594 28.433594 32.050781 28.453125 32.039062 C 28.480469 32.03125 28.511719 32.019531 28.539062 32.011719 C 26.6875 33.390625 24.539062 34.390625 22.210938 34.910156 C 22.367188 34.375 22.511719 33.847656 22.652344 33.328125 Z M 22.710938 33.101562 C 22.722656 33.0625 22.730469 33.023438 22.742188 32.984375 C 22.796875 32.972656 22.855469 32.964844 22.894531 32.960938 C 23.003906 32.945312 23.042969 32.878906 23.1875 32.824219 C 23.335938 32.773438 23.296875 32.773438 23.484375 32.613281 C 23.671875 32.453125 23.03125 32.15625 23.1875 32.023438 C 23.351562 31.890625 23.214844 32.089844 23.375 32.199219 C 23.535156 32.304688 23.484375 32.222656 23.617188 32.222656 C 23.75 32.222656 23.765625 32.210938 23.925781 32.171875 C 24.085938 32.132812 24.085938 32.171875 24.21875 32.089844 C 24.351562 32.011719 24.21875 32.089844 24.40625 31.941406 C 24.59375 31.796875 24.488281 31.878906 24.648438 31.714844 C 24.808594 31.554688 24.769531 31.59375 24.929688 31.367188 C 25.089844 31.140625 25.046875 31.179688 25.582031 30.859375 C 26.117188 30.539062 25.664062 30.648438 25.636719 30.433594 C 25.609375 30.21875 25.675781 30.285156 25.769531 30.097656 C 25.832031 29.976562 26.378906 29.753906 26.863281 29.5625 C 27.648438 29.394531 28.402344 29.203125 29.117188 28.988281 C 28.894531 29.917969 28.628906 30.875 28.308594 31.859375 C 26.414062 32.441406 24.542969 32.859375 22.710938 33.101562 Z M 27.648438 29.164062 C 27.640625 29.136719 27.640625 29.089844 27.710938 28.988281 C 27.910156 28.679688 28.03125 28.613281 28.070312 28.519531 C 28.109375 28.425781 28.257812 28.253906 28.296875 28.105469 C 28.335938 27.957031 28.351562 28.011719 28.335938 27.917969 C 28.324219 27.824219 28.242188 27.234375 28.390625 26.957031 C 28.535156 26.675781 28.738281 26.582031 28.914062 26.3125 C 29.085938 26.046875 29.085938 26.097656 29.21875 25.953125 C 29.351562 25.804688 29.421875 25.632812 29.445312 25.472656 C 29.472656 25.3125 29.445312 25.164062 29.339844 25.058594 C 29.234375 24.949219 29.167969 25.058594 29.019531 24.925781 C 28.871094 24.789062 28.804688 24.777344 28.457031 24.707031 C 28.109375 24.644531 28.230469 24.789062 27.855469 24.761719 C 27.480469 24.734375 27.683594 24.816406 27.425781 24.789062 C 27.195312 24.765625 27.386719 24.785156 27.347656 24.675781 C 28.246094 24.480469 29.097656 24.25 29.894531 23.996094 C 29.785156 25.492188 29.554688 27.078125 29.167969 28.746094 C 28.683594 28.898438 28.175781 29.035156 27.648438 29.164062 Z M 34.03125 22.082031 C 34.433594 21.8125 34.789062 21.523438 35.101562 21.226562 C 34.886719 22.566406 34.515625 23.851562 34.003906 25.0625 C 34.058594 24.023438 34.066406 23.03125 34.03125 22.082031 Z M 34.019531 21.832031 C 34 21.359375 33.96875 20.894531 33.929688 20.441406 C 34.195312 20.570312 34.0625 20.703125 34.382812 20.511719 C 34.753906 20.285156 34.96875 20.003906 35.15625 19.761719 C 35.203125 19.699219 35.246094 19.640625 35.28125 19.585938 C 35.257812 20.019531 35.210938 20.449219 35.152344 20.875 C 34.832031 21.207031 34.453125 21.527344 34.019531 21.832031 Z M 8.066406 5.503906 C 8.136719 5.679688 8.230469 5.851562 8.351562 6.019531 C 7.007812 6.980469 5.707031 8.128906 4.570312 9.484375 C 4.554688 9.457031 4.546875 9.429688 4.535156 9.402344 C 5.5 7.925781 6.695312 6.609375 8.066406 5.503906 Z M 2.289062 14.542969 C 2.683594 15.109375 3.253906 15.644531 3.972656 16.140625 C 3.402344 17.742188 3.050781 19.488281 3.015625 21.371094 C 2.539062 20.972656 2.15625 20.554688 1.875 20.117188 C 1.828125 19.605469 1.800781 19.085938 1.800781 18.558594 C 1.800781 17.175781 1.972656 15.832031 2.289062 14.542969 Z M 4.09375 27.003906 C 5.125 27.703125 6.441406 28.3125 7.964844 28.808594 C 8.4375 29.929688 9.0625 31.003906 9.835938 32.027344 C 9.089844 31.808594 8.453125 31.59375 7.949219 31.410156 C 7.910156 31.398438 7.875 31.414062 7.847656 31.433594 C 6.351562 30.191406 5.082031 28.691406 4.09375 27.003906 Z M 15.945312 35.113281 C 15.367188 34.539062 14.867188 33.914062 14.441406 33.25 C 15.792969 33.445312 17.269531 33.574219 18.824219 33.574219 C 18.90625 34.207031 18.996094 34.785156 19.101562 35.304688 C 18.921875 35.308594 18.738281 35.316406 18.558594 35.316406 C 17.667969 35.316406 16.796875 35.246094 15.945312 35.113281 Z M 29.015625 31.640625 C 28.863281 31.691406 28.710938 31.734375 28.554688 31.78125 C 28.867188 30.800781 29.136719 29.84375 29.351562 28.914062 C 30.613281 28.519531 31.75 28.050781 32.710938 27.515625 C 31.710938 29.085938 30.464844 30.480469 29.015625 31.640625 Z M 29.015625 31.640625 " fill-opacity="1" fill-rule="nonzero"/></g><path fill="#000000" d="M 19.753906 20.003906 C 19.738281 20.054688 19.539062 20.042969 19.484375 20.136719 C 19.433594 20.230469 19.339844 20.3125 19.484375 20.324219 C 19.632812 20.335938 19.714844 20.3125 19.875 20.324219 C 20.035156 20.335938 19.875 20.359375 20.085938 20.328125 C 20.300781 20.296875 20.207031 20.363281 20.421875 20.269531 C 20.636719 20.175781 20.769531 20.164062 20.890625 20.164062 C 21.007812 20.164062 21.007812 20.050781 21.0625 20.085938 C 21.117188 20.125 21.15625 20.222656 21.15625 20.085938 C 21.15625 19.949219 21.144531 19.898438 20.917969 19.898438 C 20.6875 19.894531 20.621094 19.898438 20.542969 19.898438 C 20.460938 19.894531 20.28125 19.898438 20.28125 19.898438 L 20.085938 19.828125 C 19.820312 19.84375 19.753906 19.898438 19.753906 19.898438 C 19.753906 19.898438 19.875 19.988281 19.917969 20.003906 C 19.96875 20.015625 19.765625 19.949219 19.753906 20.003906 Z M 19.753906 20.003906 " fill-opacity="1" fill-rule="nonzero"/><path fill="#000000" d="M 21.636719 20.289062 C 21.757812 20.285156 21.691406 20.3125 21.757812 20.285156 C 21.824219 20.257812 21.746094 20.324219 21.824219 20.257812 C 21.90625 20.191406 21.90625 20.191406 21.90625 20.191406 C 21.90625 20.191406 21.933594 20.136719 21.972656 20.136719 C 22.011719 20.136719 22.011719 20.035156 21.972656 20.085938 C 21.933594 20.136719 21.734375 20.085938 21.734375 20.085938 C 21.640625 20.097656 21.558594 20.109375 21.546875 20.136719 C 21.53125 20.164062 21.546875 20.164062 21.546875 20.21875 C 21.546875 20.269531 21.511719 20.292969 21.636719 20.289062 Z M 21.636719 20.289062 " fill-opacity="1" fill-rule="nonzero"/><path fill="#000000" d="M 25.921875 5.980469 C 25.769531 5.960938 25.761719 5.9375 25.6875 5.875 C 25.617188 5.8125 25.535156 5.792969 25.503906 5.792969 C 25.476562 5.792969 25.429688 5.792969 25.429688 5.792969 C 25.367188 5.882812 25.339844 5.945312 25.332031 5.972656 C 25.324219 6 25.21875 6.070312 25.21875 6.070312 C 25.21875 6.070312 25.207031 6.0625 25.144531 6.070312 C 25.082031 6.078125 24.949219 5.910156 24.914062 6.070312 C 24.878906 6.230469 24.824219 6.210938 24.914062 6.320312 C 25.003906 6.425781 25.21875 6.542969 25.316406 6.605469 C 25.414062 6.667969 25.386719 6.730469 25.609375 6.757812 C 25.832031 6.78125 25.742188 6.890625 25.921875 6.703125 C 26.097656 6.515625 26.074219 6.660156 26.109375 6.425781 C 26.144531 6.195312 26.171875 6.222656 26.109375 6.121094 C 26.046875 6.027344 26.074219 6 25.921875 5.980469 Z M 25.921875 5.980469 " fill-opacity="1" fill-rule="nonzero"/><path fill="#000000" d="M 16.363281 5.617188 C 16.359375 5.625 16.359375 5.625 16.363281 5.617188 Z M 16.363281 5.617188 " fill-opacity="1" fill-rule="nonzero"/><path fill="#000000" d="M 16.371094 5.574219 C 16.371094 5.597656 16.367188 5.609375 16.363281 5.617188 C 16.371094 5.605469 16.390625 5.585938 16.449219 5.574219 C 16.582031 5.546875 16.515625 5.601562 16.582031 5.546875 C 16.648438 5.496094 16.542969 5.546875 16.648438 5.496094 C 16.757812 5.441406 16.730469 5.546875 16.757812 5.441406 C 16.785156 5.335938 16.71875 5.425781 16.757812 5.289062 C 16.796875 5.148438 16.746094 5.242188 16.796875 5.148438 C 16.851562 5.054688 16.8125 5.132812 16.851562 5.054688 C 16.890625 4.972656 16.746094 4.988281 16.746094 4.988281 C 16.746094 4.988281 16.71875 5 16.648438 5.066406 C 16.582031 5.132812 16.449219 5.148438 16.394531 5.1875 C 16.34375 5.226562 16.394531 5.09375 16.34375 5.226562 C 16.289062 5.359375 16.316406 5.398438 16.34375 5.488281 C 16.371094 5.574219 16.371094 5.480469 16.371094 5.574219 Z M 16.371094 5.574219 " fill-opacity="1" fill-rule="nonzero"/><path fill="#000000" d="M 17.894531 7.632812 C 17.828125 7.554688 17.851562 7.488281 17.734375 7.488281 C 17.613281 7.488281 17.613281 7.488281 17.613281 7.488281 C 17.613281 7.488281 17.480469 7.566406 17.46875 7.648438 C 17.453125 7.726562 17.367188 7.6875 17.382812 7.769531 C 17.398438 7.847656 17.273438 7.78125 17.382812 7.914062 C 17.492188 8.046875 17.558594 8.023438 17.613281 8.074219 C 17.667969 8.128906 17.558594 8.207031 17.613281 8.234375 C 17.667969 8.261719 17.53125 8.328125 17.734375 8.234375 C 17.933594 8.140625 17.789062 8.273438 17.933594 8.140625 C 18.082031 8.007812 18.070312 8.128906 18.082031 8.007812 C 18.09375 7.886719 18.175781 7.914062 18.082031 7.820312 C 17.988281 7.726562 17.960938 7.714844 17.894531 7.632812 Z M 17.894531 7.632812 " fill-opacity="1" fill-rule="nonzero"/></svg>